<svg xmlns="http://www.w3.org/2000/svg" xmlns:xlink="http://www.w3.org/1999/xlink" viewBox="0 0 1726.36 1440"><defs><style>.cls-1{fill:none;}.cls-2{fill:#1f1832;}.cls-3{clip-path:url(#clip-path);}.cls-4{fill:#fff;fill-rule:evenodd;}.cls-5{fill:#a0616a;}.cls-6{fill:#635aa7;}.cls-7{opacity:0.15;isolation:isolate;}</style><clipPath id="clip-path"><path class="cls-1" d="M1630.87,460.65c0,59.93-14.19,109.27-38.82,151.53a302.63,302.63,0,0,1-27.59,39.62c-90.52,110.72-258.83,171.32-410.94,269.48C704.51,1211,655.88,746.74,676.15,460.65c8.18-115.44,53.14-221.18,124.56-302.15a475.27,475.27,0,0,1,48.48-47.66C930.28,41.79,1035,0,1153.52,0c203.29,0,376.89,122.61,445.72,295.4a446.17,446.17,0,0,1,31.63,165.25Zm-910-337.95c0,1.18,0,2.34-.13,3.48A47.71,47.71,0,1,1,631,100.43a44.26,44.26,0,0,1,3.51-5.64,47.69,47.69,0,0,1,86.23,24C720.86,120.1,720.91,121.39,720.91,122.7Zm653.94,859.11c-.55,1-1.12,2.05-1.75,3A47.71,47.71,0,1,1,1305.87,920a43.91,43.91,0,0,1,5.75-3.34,47.69,47.69,0,0,1,64.9,61.65C1376,979.48,1375.47,980.65,1374.85,981.81Zm338-822.55c.82.84,1.6,1.69,2.33,2.58a47.71,47.71,0,1,1-82.25,44.25,44,44,0,0,1-1.43-6.49,47.7,47.7,0,0,1,78.51-43C1711,157.43,1711.89,158.32,1712.81,159.26Z"/></clipPath></defs><g id="Layer_2" data-name="Layer 2"><g id="Layer_1-2" data-name="Layer 1"><g id="about"><path class="cls-2" d="M1630.87,460.65c0,59.93-14.19,109.27-38.82,151.53a302.63,302.63,0,0,1-27.59,39.62c-90.52,110.72-258.83,171.32-410.94,269.48C704.51,1211,655.88,746.74,676.15,460.65c8.18-115.44,53.14-221.18,124.56-302.15a475.27,475.27,0,0,1,48.48-47.66C930.28,41.79,1035,0,1153.52,0c203.29,0,376.89,122.61,445.72,295.4a446.17,446.17,0,0,1,31.63,165.25Zm-910-337.95c0,1.18,0,2.34-.13,3.48A47.71,47.71,0,1,1,631,100.43a44.26,44.26,0,0,1,3.51-5.64,47.69,47.69,0,0,1,86.23,24C720.86,120.1,720.91,121.39,720.91,122.7Zm653.94,859.11c-.55,1-1.12,2.05-1.75,3A47.71,47.71,0,1,1,1305.87,920a43.91,43.91,0,0,1,5.75-3.34,47.69,47.69,0,0,1,64.9,61.65C1376,979.48,1375.47,980.65,1374.85,981.81Zm338-822.55c.82.84,1.6,1.69,2.33,2.58a47.71,47.71,0,1,1-82.25,44.25,44,44,0,0,1-1.43-6.49,47.7,47.7,0,0,1,78.51-43C1711,157.43,1711.89,158.32,1712.81,159.26Z"/><g class="cls-3"><path class="cls-4" d="M747.76,426.77h-.16a5.19,5.19,0,0,0-5.08-5.08v-.17a5.19,5.19,0,0,0,5.08-5.08h.16a5.21,5.21,0,0,0,5.08,5.08v.17a5.21,5.21,0,0,0-5.08,5.08Z"/><path class="cls-4" d="M747.4,533.19h-.14a4.55,4.55,0,0,0-4.44-4.43v-.15a4.55,4.55,0,0,0,4.44-4.43h.14a4.55,4.55,0,0,0,4.44,4.43v.15a4.55,4.55,0,0,0-4.44,4.43Z"/><path class="cls-4" d="M758.73,605.2h-.24a7.59,7.59,0,0,0-7.41-7.41v-.24a7.6,7.6,0,0,0,7.41-7.41h.24a7.59,7.59,0,0,0,7.41,7.41v.24a7.59,7.59,0,0,0-7.41,7.41Z"/><path class="cls-4" d="M759.23,751.71H759a8.13,8.13,0,0,0-8-8v-.26a8.15,8.15,0,0,0,8-8h.26a8.15,8.15,0,0,0,7.95,8v.26a8.13,8.13,0,0,0-7.95,8Z"/><path class="cls-4" d="M732.27,864.19h-.07a2.34,2.34,0,0,0-2.3-2.29v-.08a2.36,2.36,0,0,0,2.3-2.29h.07a2.36,2.36,0,0,0,2.3,2.29v.08a2.34,2.34,0,0,0-2.3,2.29Z"/><path class="cls-4" d="M875.61,137h-.05a1.48,1.48,0,0,0-.46-1.08,1.49,1.49,0,0,0-1.07-.46v-.05a1.57,1.57,0,0,0,1.53-1.53h.05a1.57,1.57,0,0,0,1.54,1.53v.05a1.57,1.57,0,0,0-1.54,1.54Z"/><path class="cls-4" d="M844,291.43h-.22a6.87,6.87,0,0,0-6.69-6.69v-.22a6.85,6.85,0,0,0,6.69-6.68H844a6.83,6.83,0,0,0,6.68,6.68v.22a6.85,6.85,0,0,0-6.68,6.69Z"/><path class="cls-4" d="M851.24,407.67h-.16a5,5,0,0,0-4.93-4.93v-.16a5.06,5.06,0,0,0,4.93-4.93h.16a5.06,5.06,0,0,0,4.93,4.93v.16a5,5,0,0,0-4.93,4.93Z"/><path class="cls-4" d="M810.77,501h0a1.32,1.32,0,0,0-.41-1,1.36,1.36,0,0,0-1-.41v-.05a1.4,1.4,0,0,0,1.38-1.38h0a1.36,1.36,0,0,0,.41,1,1.32,1.32,0,0,0,1,.41v.05a1.4,1.4,0,0,0-1.38,1.38Z"/><path class="cls-4" d="M816.32,637.13h-.22a6.89,6.89,0,0,0-6.72-6.72v-.22a6.87,6.87,0,0,0,6.72-6.72h.22a6.89,6.89,0,0,0,6.72,6.72v.22a6.9,6.9,0,0,0-6.72,6.72Z"/><path class="cls-4" d="M844.16,757.31h-.22a6.82,6.82,0,0,0-6.66-6.67v-.22a6.82,6.82,0,0,0,6.66-6.67h.22a6.84,6.84,0,0,0,6.67,6.67v.22a6.84,6.84,0,0,0-6.67,6.67Z"/><path class="cls-4" d="M872.28,838.58h-.07a2.15,2.15,0,0,0-2.11-2.11v-.07a2,2,0,0,0,1.48-.64,2,2,0,0,0,.63-1.47h.07a2.15,2.15,0,0,0,2.11,2.11v.07a2.05,2.05,0,0,0-1.48.63A2,2,0,0,0,872.28,838.58Z"/><path class="cls-4" d="M837.18,946.52h0a1.24,1.24,0,0,0-.38-.89,1.23,1.23,0,0,0-.89-.38v0a1.19,1.19,0,0,0,.89-.38,1.2,1.2,0,0,0,.38-.88h0a1.2,1.2,0,0,0,.38.88,1.18,1.18,0,0,0,.88.38v0a1.22,1.22,0,0,0-.88.38A1.24,1.24,0,0,0,837.18,946.52Z"/><path class="cls-4" d="M919.35,77.07h-.11a3.42,3.42,0,0,0-3.34-3.34v-.11a3.42,3.42,0,0,0,3.34-3.34h.11a3.24,3.24,0,0,0,1,2.34,3.2,3.2,0,0,0,2.34,1v.11a3.2,3.2,0,0,0-2.34,1A3.24,3.24,0,0,0,919.35,77.07Z"/><path class="cls-4" d="M932.2,197.2h-.27a8.37,8.37,0,0,0-8.18-8.18v-.27a8.37,8.37,0,0,0,8.18-8.17h.27a8.37,8.37,0,0,0,8.17,8.17V189a8.37,8.37,0,0,0-8.17,8.18Z"/><path class="cls-4" d="M970.49,260.7h-.22a6.87,6.87,0,0,0-6.72-6.72v-.22a6.87,6.87,0,0,0,6.72-6.72h.22a6.89,6.89,0,0,0,6.72,6.72V254a6.89,6.89,0,0,0-6.72,6.72Z"/><path class="cls-4" d="M933.55,423.51h-.21a6.41,6.41,0,0,0-6.27-6.27V417a6.41,6.41,0,0,0,6.27-6.27h.21a6.42,6.42,0,0,0,6.27,6.27v.21a6.42,6.42,0,0,0-6.27,6.27Z"/><path class="cls-4" d="M963.56,490.17h-.26a8.13,8.13,0,0,0-7.95-7.95V482A8.13,8.13,0,0,0,963.3,474h.26a8.15,8.15,0,0,0,8,7.95v.27a8.15,8.15,0,0,0-8,7.95Z"/><path class="cls-4" d="M921.82,616h-.11a3.57,3.57,0,0,0-3.48-3.47v-.12a3.29,3.29,0,0,0,2.43-1,3.34,3.34,0,0,0,1.05-2.43h.11a3.55,3.55,0,0,0,3.48,3.47v.12a3.55,3.55,0,0,0-3.48,3.47Z"/><path class="cls-4" d="M931.68,696.76h-.28a8.89,8.89,0,0,0-8.67-8.67v-.29a8.89,8.89,0,0,0,8.67-8.67h.28a8.89,8.89,0,0,0,8.68,8.67v.29a8.89,8.89,0,0,0-8.68,8.67Z"/><path class="cls-4" d="M949.79,829.61h-.2a6.15,6.15,0,0,0-6-6v-.2a6.17,6.17,0,0,0,6-6h.2a6.19,6.19,0,0,0,6,6v.2a6.17,6.17,0,0,0-6,6Z"/><path class="cls-4" d="M935.25,960.73h-.15a4.73,4.73,0,0,0-4.63-4.62V956a4.73,4.73,0,0,0,4.63-4.62h.15a4.73,4.73,0,0,0,4.63,4.62v.16a4.73,4.73,0,0,0-4.63,4.62Z"/><path class="cls-4" d="M1081.52,27h-.27a7.81,7.81,0,0,0-2.42-5.68,7.78,7.78,0,0,0-5.68-2.42v-.27a7.79,7.79,0,0,0,5.68-2.43,7.82,7.82,0,0,0,2.42-5.68h.27a7.78,7.78,0,0,0,2.43,5.68,7.77,7.77,0,0,0,5.67,2.43v.27a7.76,7.76,0,0,0-5.67,2.42A7.78,7.78,0,0,0,1081.52,27Z"/><path class="cls-4" d="M1047.59,186h0a1.14,1.14,0,0,0-.35-.82,1.11,1.11,0,0,0-.81-.35v0a1.11,1.11,0,0,0,.81-.35,1.14,1.14,0,0,0,.35-.82h0a1.14,1.14,0,0,0,.35.82,1.11,1.11,0,0,0,.81.35v0a1.11,1.11,0,0,0-.81.35A1.14,1.14,0,0,0,1047.59,186Z"/><path class="cls-4" d="M1077.18,258.57h-.25a7.93,7.93,0,0,0-7.74-7.74v-.25a7.95,7.95,0,0,0,7.74-7.75h.25a7.93,7.93,0,0,0,7.75,7.75v.25a7.93,7.93,0,0,0-7.75,7.74Z"/><path class="cls-4" d="M1072.78,367.33h-.06a1.88,1.88,0,0,0-1.83-1.84v-.06a1.88,1.88,0,0,0,1.83-1.83h.06a1.86,1.86,0,0,0,1.83,1.83v.06a1.88,1.88,0,0,0-1.83,1.84Z"/><path class="cls-4" d="M1032.45,521.52h-.25a7.72,7.72,0,0,0-7.56-7.55v-.25a7.74,7.74,0,0,0,7.56-7.56h.25a7.74,7.74,0,0,0,7.56,7.56V514a7.72,7.72,0,0,0-7.56,7.55Z"/><path class="cls-4" d="M1012.85,622h-.18a5.54,5.54,0,0,0-5.4-5.4v-.18a5.54,5.54,0,0,0,5.4-5.4h.18a5.52,5.52,0,0,0,5.4,5.4v.18a5.54,5.54,0,0,0-5.4,5.4Z"/><path class="cls-4" d="M1075.57,752.83h-.19a6,6,0,0,0-5.86-5.86v-.19a6,6,0,0,0,5.86-5.86h.19a6,6,0,0,0,5.86,5.86V747a6,6,0,0,0-5.86,5.86Z"/><path class="cls-4" d="M1030.22,807H1030a8.3,8.3,0,0,0-8.12-8.12v-.26a8.32,8.32,0,0,0,8.12-8.12h.27a8.32,8.32,0,0,0,8.12,8.12v.26a8.3,8.3,0,0,0-8.12,8.12Z"/><path class="cls-4" d="M1037,924.38h-.13a4.17,4.17,0,0,0-4.07-4.07v-.13a4.17,4.17,0,0,0,4.07-4.07h.13a4.17,4.17,0,0,0,4.06,4.07v.13a4.17,4.17,0,0,0-4.06,4.07Z"/><path class="cls-4" d="M1181,31.42h-.23a7,7,0,0,0-6.89-6.89V24.3a6.62,6.62,0,0,0,4.83-2.07,6.64,6.64,0,0,0,2.06-4.82h.23a6.57,6.57,0,0,0,2.06,4.82,6.62,6.62,0,0,0,4.83,2.07v.23a7,7,0,0,0-6.89,6.89Z"/><path class="cls-4" d="M1130.6,183.11h-.24a7.59,7.59,0,0,0-7.41-7.41v-.24a7.59,7.59,0,0,0,7.41-7.41h.24a7.59,7.59,0,0,0,7.41,7.41v.24a7.59,7.59,0,0,0-7.41,7.41Z"/><path class="cls-4" d="M1112.35,296h-.29a8.82,8.82,0,0,0-8.61-8.61v-.28a8.84,8.84,0,0,0,8.61-8.61h.29a8.8,8.8,0,0,0,8.6,8.61v.28a8.8,8.8,0,0,0-8.6,8.61Z"/><path class="cls-4" d="M1140.75,394.55h-.13a3.95,3.95,0,0,0-3.85-3.86v-.12a3.95,3.95,0,0,0,3.85-3.85h.13a3.66,3.66,0,0,0,1.15,2.69,3.7,3.7,0,0,0,2.7,1.16v.12a3.95,3.95,0,0,0-3.85,3.86Z"/><path class="cls-4" d="M1113,497.56h-.14a4.37,4.37,0,0,0-4.29-4.28v-.14a4.39,4.39,0,0,0,4.29-4.29h.14a4.41,4.41,0,0,0,4.29,4.29v.14a4.07,4.07,0,0,0-3,1.28A4.11,4.11,0,0,0,1113,497.56Z"/><path class="cls-4" d="M1120.37,629h-.23a7.21,7.21,0,0,0-7-7v-.23a7.21,7.21,0,0,0,7-7h.23a7.17,7.17,0,0,0,7,7v.23a7.19,7.19,0,0,0-7,7Z"/><path class="cls-4" d="M1157.54,726.6h-.06a1.6,1.6,0,0,0-.5-1.18,1.62,1.62,0,0,0-1.17-.5v-.06a1.71,1.71,0,0,0,1.67-1.67h.06a1.62,1.62,0,0,0,.5,1.17,1.6,1.6,0,0,0,1.18.5v.06a1.71,1.71,0,0,0-1.68,1.68Z"/><path class="cls-4" d="M1140,837.73h-.25a7.66,7.66,0,0,0-7.47-7.47V830a7.66,7.66,0,0,0,7.47-7.47h.25a7.64,7.64,0,0,0,7.46,7.47v.24a7.64,7.64,0,0,0-7.46,7.47Z"/><path class="cls-4" d="M1133.52,918.83h-.23a7.18,7.18,0,0,0-7-7v-.23a7.19,7.19,0,0,0,7-7h.23a7.18,7.18,0,0,0,7,7v.23a7.18,7.18,0,0,0-7,7Z"/><path class="cls-4" d="M1235.91,66.57h-.06a1.66,1.66,0,0,0-1.61-1.62v0a1.55,1.55,0,0,0,1.13-.48,1.59,1.59,0,0,0,.48-1.14h.06a1.57,1.57,0,0,0,.48,1.14,1.55,1.55,0,0,0,1.13.48v0a1.66,1.66,0,0,0-1.61,1.62Z"/><path class="cls-4" d="M1223.49,619.87h-.19a5.81,5.81,0,0,0-5.67-5.67V614a5.83,5.83,0,0,0,5.67-5.67h.19a5.81,5.81,0,0,0,5.67,5.67v.18a5.81,5.81,0,0,0-5.67,5.67Z"/><path class="cls-4" d="M1261.43,755.28h-.29a9.13,9.13,0,0,0-8.89-8.9v-.29a9.13,9.13,0,0,0,8.89-8.89h.29a9.09,9.09,0,0,0,8.89,8.89v.29a9.11,9.11,0,0,0-8.89,8.9Z"/><path class="cls-4" d="M1354,638.49h-.11a3.52,3.52,0,0,0-3.44-3.44v-.12a3.52,3.52,0,0,0,3.44-3.44h.11a3.54,3.54,0,0,0,3.45,3.44v.12a3.54,3.54,0,0,0-3.45,3.44Z"/><path class="cls-4" d="M1354,960.79h-.24a7.52,7.52,0,0,0-7.35-7.34v-.24a7.54,7.54,0,0,0,7.35-7.35h.24a7.52,7.52,0,0,0,7.34,7.35v.24a7.52,7.52,0,0,0-7.34,7.34Z"/><path class="cls-4" d="M1441.47,587.05h-.13a4.14,4.14,0,0,0-4-4v-.14a4.14,4.14,0,0,0,4-4h.13a4.14,4.14,0,0,0,4,4V583a4.14,4.14,0,0,0-4,4Z"/><path class="cls-4" d="M917.46,337.71h-.24a7.62,7.62,0,0,0-7.44-7.44V330a7.62,7.62,0,0,0,7.44-7.44h.24a7.6,7.6,0,0,0,7.45,7.44v.25a7.62,7.62,0,0,0-7.45,7.44Z"/><path class="cls-4" d="M1581.19,614.5h-.14a4.37,4.37,0,0,0-4.27-4.26v-.14a4.37,4.37,0,0,0,4.27-4.27h.14a4.37,4.37,0,0,0,4.26,4.27v.14a4.38,4.38,0,0,0-4.26,4.26Z"/><path class="cls-4" d="M657.63,166.92h-.27a8.48,8.48,0,0,0-8.26-8.26v-.27a8.46,8.46,0,0,0,8.26-8.25h.27a8.44,8.44,0,0,0,8.25,8.25v.27a8.46,8.46,0,0,0-8.25,8.26Z"/><path class="cls-4" d="M884.3,492.63h-.17a5,5,0,0,0-4.89-4.9v-.16a5,5,0,0,0,4.89-4.9h.17a5,5,0,0,0,4.89,4.9v.16a5,5,0,0,0-4.89,4.9Z"/><path class="cls-4" d="M862.13,577.13h-.08a2.36,2.36,0,0,0-.74-1.72,2.32,2.32,0,0,0-1.72-.74v-.08a2.53,2.53,0,0,0,2.46-2.46h.08a2.53,2.53,0,0,0,2.46,2.46v.08a2.32,2.32,0,0,0-1.72.74A2.36,2.36,0,0,0,862.13,577.13Z"/><path class="cls-4" d="M823.15,199.34h-.22a6.82,6.82,0,0,0-6.65-6.66v-.21a6.82,6.82,0,0,0,6.65-6.66h.22a6.82,6.82,0,0,0,6.65,6.66v.21a6.82,6.82,0,0,0-6.65,6.66Z"/><path class="cls-4" d="M730.47,816.91h-.09a2.6,2.6,0,0,0-2.53-2.53v-.09a2.6,2.6,0,0,0,2.53-2.53h.09a2.58,2.58,0,0,0,2.53,2.53v.09a2.58,2.58,0,0,0-2.53,2.53Z"/><path class="cls-4" d="M1024.72,108.57h-.16a5.13,5.13,0,0,0-5-5v-.16a5.13,5.13,0,0,0,5-5h.16a5.13,5.13,0,0,0,5,5v.16a5.13,5.13,0,0,0-5,5Z"/><path class="cls-4" d="M694.52,91.54h-.1a2.63,2.63,0,0,0-.83-1.94,2.67,2.67,0,0,0-1.94-.83v-.09a2.85,2.85,0,0,0,2.77-2.78h.1a2.84,2.84,0,0,0,2.77,2.78v.09a2.67,2.67,0,0,0-1.94.83A2.63,2.63,0,0,0,694.52,91.54Z"/><path class="cls-4" d="M1315.15,980.42H1315a3.61,3.61,0,0,0-3.52-3.52v-.11a3.61,3.61,0,0,0,3.52-3.52h.12a3.61,3.61,0,0,0,3.52,3.52v.11a3.61,3.61,0,0,0-3.52,3.52Z"/><path class="cls-4" d="M751.15,325.6h-.27a8.46,8.46,0,0,0-8.26-8.26v-.27a8.46,8.46,0,0,0,8.26-8.26h.27a8.48,8.48,0,0,0,8.27,8.26v.27a8.48,8.48,0,0,0-8.27,8.26Z"/><path class="cls-4" d="M1364.49,126.41h-.22a6.66,6.66,0,0,0-6.5-6.51v-.21a6.66,6.66,0,0,0,6.5-6.51h.22a6.66,6.66,0,0,0,6.5,6.51v.21a6.66,6.66,0,0,0-6.5,6.51Z"/><path class="cls-4" d="M803.33,826.62h0a1,1,0,0,0-.34-.77,1,1,0,0,0-.77-.34v0a1.15,1.15,0,0,0,1.11-1.11h0a1.13,1.13,0,0,0,1.11,1.11v0a1,1,0,0,0-.78.34A1.06,1.06,0,0,0,803.33,826.62Z"/><path class="cls-4" d="M1194.27,463.85H1194a8.17,8.17,0,0,0-8-8v-.26a8.18,8.18,0,0,0,8-8h.26a8.18,8.18,0,0,0,8,8v.26a8.17,8.17,0,0,0-8,8Z"/><path class="cls-4" d="M1214.88,566.88h-.11a3.72,3.72,0,0,0-3.64-3.64v-.12a3.73,3.73,0,0,0,3.64-3.63h.11a3.71,3.71,0,0,0,3.64,3.63v.12a3.72,3.72,0,0,0-3.64,3.64Z"/><path class="cls-4" d="M775,895.47h0A1.47,1.47,0,0,0,773.5,894v0a1.37,1.37,0,0,0,1-.43,1.39,1.39,0,0,0,.43-1h0a1.41,1.41,0,0,0,.43,1,1.39,1.39,0,0,0,1,.43v0a1.39,1.39,0,0,0-1,.43A1.41,1.41,0,0,0,775,895.47Z"/><path class="cls-4" d="M1279.76,380h-.29a9,9,0,0,0-8.77-8.77V371a9,9,0,0,0,8.77-8.77h.29a9,9,0,0,0,8.77,8.77v.29a9,9,0,0,0-8.77,8.77Z"/><path class="cls-4" d="M1315.14,481.36h-.1a3.4,3.4,0,0,0-3.33-3.32v-.11a3.17,3.17,0,0,0,2.33-1,3.22,3.22,0,0,0,1-2.33h.1a3.42,3.42,0,0,0,3.33,3.33V478a3.4,3.4,0,0,0-3.33,3.32Z"/><path class="cls-4" d="M1296.73,560.4h-.13a4.31,4.31,0,0,0-4.2-4.2v-.14a4.31,4.31,0,0,0,4.2-4.2h.13a4.31,4.31,0,0,0,4.2,4.2v.14a4.31,4.31,0,0,0-4.2,4.2Z"/><path class="cls-4" d="M909.53,903.37h-.16a4.85,4.85,0,0,0-4.76-4.76v-.16A4.61,4.61,0,0,0,908,897a4.56,4.56,0,0,0,1.42-3.33h.16a4.87,4.87,0,0,0,4.76,4.76v.16a4.85,4.85,0,0,0-4.76,4.76Z"/><path class="cls-4" d="M1643.48,219.31h-.21A6.42,6.42,0,0,0,1637,213v-.2a6.42,6.42,0,0,0,6.27-6.27h.21a6.42,6.42,0,0,0,6.27,6.27v.2a6.42,6.42,0,0,0-6.27,6.28Z"/><path class="cls-4" d="M1306.37,677.31h-.13a4.29,4.29,0,0,0-4.18-4.18V673a4.31,4.31,0,0,0,4.18-4.18h.13a4.27,4.27,0,0,0,4.18,4.18v.13a4.27,4.27,0,0,0-4.18,4.18Z"/><path class="cls-4" d="M1290.87,803h-.07a2.11,2.11,0,0,0-.66-1.54,2.13,2.13,0,0,0-1.55-.66v-.07a2.26,2.26,0,0,0,2.21-2.2h.07a2.26,2.26,0,0,0,2.2,2.2v.07a2.26,2.26,0,0,0-2.2,2.2Z"/><path class="cls-4" d="M1701.55,164.33h-.28a8.85,8.85,0,0,0-8.64-8.64v-.28a8.85,8.85,0,0,0,8.64-8.63h.28a8.85,8.85,0,0,0,8.63,8.63v.28a8.85,8.85,0,0,0-8.63,8.64Z"/><path class="cls-4" d="M1702.05,231.51h-.29a8.85,8.85,0,0,0-8.66-8.66v-.29a8.87,8.87,0,0,0,8.66-8.66h.29a8.85,8.85,0,0,0,8.66,8.66v.29a8.85,8.85,0,0,0-8.66,8.66Z"/><path class="cls-4" d="M1407,700h-.22a6.73,6.73,0,0,0-6.59-6.59v-.22a6.73,6.73,0,0,0,6.59-6.58h.22a6.73,6.73,0,0,0,6.59,6.58v.22A6.73,6.73,0,0,0,1407,700Z"/><path class="cls-4" d="M1221.27,130.53h-.19a6,6,0,0,0-5.84-5.84v-.19a6,6,0,0,0,5.84-5.84h.19a6,6,0,0,0,5.84,5.84v.19a6,6,0,0,0-5.84,5.84Z"/><path class="cls-4" d="M1232,198.62h-.16a5,5,0,0,0-4.85-4.85v-.16a5,5,0,0,0,4.85-4.85h.16a5,5,0,0,0,4.85,4.85v.16a5,5,0,0,0-4.85,4.85Z"/><path class="cls-4" d="M1178.84,297.39h-.26a8.27,8.27,0,0,0-8.08-8.08V289a8.27,8.27,0,0,0,8.08-8.07h.26a8.27,8.27,0,0,0,8.08,8.07v.27a8.27,8.27,0,0,0-8.08,8.08Z"/><path class="cls-4" d="M1450.11,694.13H1450a4.51,4.51,0,0,0-4.41-4.41v-.14a4.53,4.53,0,0,0,4.41-4.41h.15a4.53,4.53,0,0,0,4.41,4.41v.14a4.51,4.51,0,0,0-4.41,4.41Z"/><path class="cls-4" d="M1320,110.05h-.1a3,3,0,0,0-2.94-3V107a3,3,0,0,0,2.94-3h.1a2.83,2.83,0,0,0,.88,2.07,2.87,2.87,0,0,0,2.07.88v.09a2.84,2.84,0,0,0-2.07.89A2.81,2.81,0,0,0,1320,110.05Z"/><path class="cls-4" d="M1324.19,196.54h-.1a2.79,2.79,0,0,0-.87-2,2.77,2.77,0,0,0-2-.88v-.09a3,3,0,0,0,2.91-2.92h.1a3,3,0,0,0,2.91,2.92v.09a2.77,2.77,0,0,0-2,.88A2.79,2.79,0,0,0,1324.19,196.54Z"/><path class="cls-4" d="M1330.41,299h-.18a5.6,5.6,0,0,0-5.49-5.49v-.18a5.62,5.62,0,0,0,5.49-5.49h.18a5.64,5.64,0,0,0,5.49,5.49v.18a5.62,5.62,0,0,0-5.49,5.49Z"/><path class="cls-4" d="M1313.42,436.05h-.12a3.72,3.72,0,0,0-3.66-3.66v-.12a3.74,3.74,0,0,0,3.66-3.67h.12a3.76,3.76,0,0,0,3.67,3.67v.12a3.74,3.74,0,0,0-3.67,3.66Z"/><path class="cls-4" d="M1300.18,508.9H1300A7.07,7.07,0,0,0,1293,502v-.23a7.09,7.09,0,0,0,6.93-6.93h.23a7.11,7.11,0,0,0,6.93,6.93V502a7.09,7.09,0,0,0-6.93,6.93Z"/><path class="cls-4" d="M1390.34,74.57h-.13a4.07,4.07,0,0,0-4-4v-.14a4.07,4.07,0,0,0,4-4h.13a4.07,4.07,0,0,0,4,4v.14a4.07,4.07,0,0,0-4,4Z"/><path class="cls-4" d="M1411.61,174h0a1.55,1.55,0,0,0-1.52-1.52v0a1.54,1.54,0,0,0,1.52-1.51h0a1.46,1.46,0,0,0,.45,1.06,1.48,1.48,0,0,0,1.06.45v0a1.56,1.56,0,0,0-1.51,1.52Z"/><path class="cls-4" d="M1412.23,344.08H1412a7,7,0,0,0-6.86-6.85V337a7,7,0,0,0,6.86-6.86h.22a7,7,0,0,0,6.86,6.86v.22a7,7,0,0,0-6.86,6.85Z"/><path class="cls-4" d="M1416.56,392.22h-.21a6.42,6.42,0,0,0-6.27-6.28v-.2a6.44,6.44,0,0,0,6.27-6.28h.21a6.42,6.42,0,0,0,6.28,6.28v.2a6.42,6.42,0,0,0-6.28,6.28Z"/><path class="cls-4" d="M1429.13,518.29H1429a4.94,4.94,0,0,0-4.82-4.82v-.16a4.92,4.92,0,0,0,4.82-4.82h.16a4.92,4.92,0,0,0,4.82,4.82v.16a4.94,4.94,0,0,0-4.82,4.82Z"/><path class="cls-4" d="M878.27,265.65h-.08a2.65,2.65,0,0,0-2.6-2.6V263a2.67,2.67,0,0,0,2.6-2.6h.08a2.67,2.67,0,0,0,2.6,2.6v.09a2.65,2.65,0,0,0-2.6,2.6Z"/><path class="cls-4" d="M1520.76,231.16h-.22a6.63,6.63,0,0,0-6.47-6.47v-.21a6.63,6.63,0,0,0,6.47-6.47h.22a6.61,6.61,0,0,0,6.47,6.47v.21a6.61,6.61,0,0,0-6.47,6.47Z"/><path class="cls-4" d="M1500.67,332.55h-.25a7.74,7.74,0,0,0-7.55-7.55v-.24a7.74,7.74,0,0,0,7.55-7.56h.25a7.74,7.74,0,0,0,7.55,7.56V325a7.74,7.74,0,0,0-7.55,7.55Z"/><path class="cls-4" d="M1476.41,398.7h-.14a4.6,4.6,0,0,0-4.49-4.49v-.15a4.61,4.61,0,0,0,4.49-4.49h.14a4.6,4.6,0,0,0,4.49,4.49v.15a4.6,4.6,0,0,0-4.49,4.49Z"/><path class="cls-4" d="M1501.52,504.94h-.25a8.07,8.07,0,0,0-7.88-7.87v-.26a8.07,8.07,0,0,0,7.88-7.87h.25a8,8,0,0,0,7.88,7.87v.26a8.07,8.07,0,0,0-7.88,7.87Z"/><path class="cls-4" d="M986.68,313.94h-.26a8.27,8.27,0,0,0-8.08-8.08v-.26a8.29,8.29,0,0,0,8.08-8.08h.26a8.27,8.27,0,0,0,8.08,8.08v.26a8.27,8.27,0,0,0-8.08,8.08Z"/><path class="cls-4" d="M1579,354.41h-.22a6.92,6.92,0,0,0-6.76-6.75v-.22a6.94,6.94,0,0,0,6.76-6.76h.22a6.92,6.92,0,0,0,6.75,6.76v.22a6.9,6.9,0,0,0-6.75,6.75Z"/><path class="cls-4" d="M1586,435.16h-.15a4.68,4.68,0,0,0-4.56-4.57v-.15a4.68,4.68,0,0,0,4.56-4.56h.15a4.68,4.68,0,0,0,4.57,4.56v.15a4.68,4.68,0,0,0-4.57,4.57Z"/><path class="cls-4" d="M1611,529h-.22a7.16,7.16,0,0,0-7-7v-.23a7.18,7.18,0,0,0,7-7h.22a7.14,7.14,0,0,0,7,7V522a7.14,7.14,0,0,0-7,7Z"/></g><path class="cls-5" d="M817.62,1038.6s104.71,4.36,104.71,30.54-117.8,0-117.8,0Z"/><path class="cls-2" d="M660.55,1440l-196.34-13.09-8.72-104.71-43.63,91.62-192-26.18c4.37-165.79,74.18-327.22,78.54-349s14.79-111.95,14.79-111.95c19.07-40.45,119-44.24,197.3-40.58,32.46,1.48,61.25,4.28,79,6.28,11.74,1.31,18.67,2.27,18.67,2.27,31.29,32.24,51.44,76.18,63.83,125.26C716.7,1196.72,660.55,1440,660.55,1440Z"/><circle class="cls-5" cx="442.4" cy="318.7" r="109.08"/><path class="cls-5" d="M368.23,344.88S337.69,480.13,289.69,519.4s187.61,0,187.61,0S425,432.14,464.21,392.87,368.23,344.88,368.23,344.88Z"/><path class="cls-6" d="M590.74,903.35l-72.38,8L315.87,933.89s-1-2.58-2.66-7.24c-14.7-40.1-85.52-235.21-93.33-293.81-8.72-65.45,82.9-144,82.9-144S390,471.41,416.22,471.41s130.89,39.27,130.89,39.27l39,351.26,3.36,30.41Z"/><path class="cls-7" d="M672,1019.88l-146.72-86s-2.58-8.38-6.94-22.51c-2.18-7.07-4.84-15.62-7.85-25.31C493.58,831.71,465.17,742,442.4,676.47,407.49,576.12,577.65,855.35,577.65,855.35l8.51,6.59,3.36,30.41c11.74,1.31,18.67,2.27,18.67,2.27C639.48,926.86,659.63,970.8,672,1019.88Z"/><path class="cls-6" d="M477.3,519.4s-43.63,56.72-8.72,157.07,82.89,257.42,82.89,257.42l253.06,148.34,34.9-43.63L603.83,855.35s-8.73-331.59-52.36-344.67S477.3,519.4,477.3,519.4Z"/><path class="cls-5" d="M261.33,901.17s61.09,126.52,87.26,113.43-65.44-144-65.44-144Z"/><path class="cls-6" d="M254.79,554.31l-231.24,192S-63.71,807.36,97.72,851,272.24,920.8,272.24,920.8s17.45-56.72,39.27-48L123.9,781.18l152.7-91.62Z"/><path class="cls-2" d="M161.85,408.23c12.14-6,38.94-18.14,61.76-32.76-1.6-47.54,4.26-90.7,21.4-113.57,9.62-21.84,29.81-43.71,45.64-60.93,38.85-42.29,124.76-65.9,140-44.77C545.89,158.48,558,248.81,558,248.81c-.6,37.79-39.87,39-74.27,37.61,3.08,25.79-5.13,52.59-28.9,64.48-45.46,22.73-59.1,52.28-36.37,72.74s63.64,75,9.09,88.64-61.37,40.92-45.46,52.28-36.37-20.46-36.37-20.46-9.09,54.56-56.82,40.92c-4.28-1.22-8.55-4.36-12.76-9-12.89,14.17-24.39,22.54-33.06,22.59-49.64.26-43.69-54.72-43.69-54.72s-58.92,16.54-40.53,9.89,19.17-34.76-29.69-62.6S134.45,421.8,161.85,408.23Z"/></g></g></g></svg>