<svg xmlns="http://www.w3.org/2000/svg" viewBox="0 0 53.39 51.03" style="overflow:visible;"><defs><style>.cls-1{fill:#fff;fill-rule:evenodd;}</style></defs><g id="Layer_2" data-name="Layer 2"><g id="svg3070"><g id="layer1"><g id="g3019"><path id="path28" class="cls-1" d="M12.12,51V16.6H.68V51ZM6.4,11.9c4,0,6.47-2.65,6.47-5.95S10.39,0,6.47,0,0,2.57,0,6s2.48,6,6.32,6Z"/><path id="path30" class="cls-1" d="M18.45,51H29.9V31.8A7.87,7.87,0,0,1,30.27,29a6.26,6.26,0,0,1,5.87-4.19c4.15,0,5.8,3.16,5.8,7.79V51H53.39V31.29c0-10.58-5.65-15.5-13.18-15.5a11.41,11.41,0,0,0-10.39,5.8h.08v-5H18.45c.15,3.23,0,34.43,0,34.43Z"/></g></g></g></g></svg>