<svg xmlns="http://www.w3.org/2000/svg" xmlns:xlink="http://www.w3.org/1999/xlink" viewBox="0 0 1440 1943.95"><defs><style>.cls-1{fill:none;}.cls-2{fill:url(#linear-gradient);}.cls-3{fill:url(#linear-gradient-2);}.cls-4{fill:url(#linear-gradient-3);}.cls-5{fill:url(#linear-gradient-4);}.cls-6{fill:#635aa7;}.cls-7{clip-path:url(#clip-path);}.cls-8{fill:#1f1832;}.cls-9{fill:#ffb8b8;}.cls-10{opacity:0.1;isolation:isolate;}.cls-11{fill:#e31568;}.cls-12{clip-path:url(#clip-path-2);}.cls-13{fill:#ffb9b9;}.cls-14{fill:#46bc97;}.cls-15{clip-path:url(#clip-path-3);}.cls-16{fill:#a0616a;}.cls-17{opacity:0.1;}.cls-18{fill:#35bdee;}.cls-19{clip-path:url(#clip-path-4);}</style><linearGradient id="linear-gradient" x1="549.88" y1="830.64" x2="886.64" y2="830.64" gradientUnits="userSpaceOnUse"><stop offset="0.06" stop-color="#e31568"/><stop offset="0.34" stop-color="#e11567"/><stop offset="0.48" stop-color="#d91565"/><stop offset="0.59" stop-color="#cc1562"/><stop offset="0.68" stop-color="#ba165d"/><stop offset="0.76" stop-color="#a11656"/><stop offset="0.84" stop-color="#84164e"/><stop offset="0.9" stop-color="#601744"/><stop offset="0.97" stop-color="#381839"/><stop offset="1" stop-color="#1f1832"/></linearGradient><linearGradient id="linear-gradient-2" x1="782.47" y1="618.14" x2="873.52" y2="791.29" gradientUnits="userSpaceOnUse"><stop offset="0.06" stop-color="#1f1832"/><stop offset="0.12" stop-color="#283e49"/><stop offset="0.18" stop-color="#305f5e"/><stop offset="0.25" stop-color="#377c70"/><stop offset="0.33" stop-color="#3c947e"/><stop offset="0.42" stop-color="#41a689"/><stop offset="0.53" stop-color="#44b391"/><stop offset="0.68" stop-color="#45ba96"/><stop offset="1" stop-color="#46bc97"/></linearGradient><linearGradient id="linear-gradient-3" x1="558.3" y1="576.14" x2="668.7" y2="846.34" gradientUnits="userSpaceOnUse"><stop offset="0.06" stop-color="#635aa7"/><stop offset="0.43" stop-color="#6259a5"/><stop offset="0.59" stop-color="#5e559e"/><stop offset="0.7" stop-color="#574e92"/><stop offset="0.79" stop-color="#4c4480"/><stop offset="0.87" stop-color="#3f3769"/><stop offset="0.94" stop-color="#2f284e"/><stop offset="1" stop-color="#1f1832"/></linearGradient><linearGradient id="linear-gradient-4" x1="871.72" y1="624.76" x2="619.55" y2="592.13" gradientUnits="userSpaceOnUse"><stop offset="0.06" stop-color="#33b9eb"/><stop offset="0.33" stop-color="#33b7e9"/><stop offset="0.47" stop-color="#32b0e1"/><stop offset="0.58" stop-color="#30a4d3"/><stop offset="0.68" stop-color="#2e94c0"/><stop offset="0.76" stop-color="#2c7ea7"/><stop offset="0.84" stop-color="#286389"/><stop offset="0.92" stop-color="#244464"/><stop offset="0.99" stop-color="#20203b"/><stop offset="1" stop-color="#1f1832"/></linearGradient><clipPath id="clip-path"><circle class="cls-1" cx="210" cy="720" r="210"/></clipPath><clipPath id="clip-path-2"><circle class="cls-1" cx="743" cy="1230" r="210"/></clipPath><clipPath id="clip-path-3"><circle class="cls-1" cx="1230" cy="720" r="210"/></clipPath><clipPath id="clip-path-4"><circle class="cls-1" cx="743" cy="210" r="210"/></clipPath></defs><g id="Layer_2" data-name="Layer 2"><g id="Layer_1-2" data-name="Layer 1"><g id="transdisciplinary"><g id="icon"><path class="cls-2" d="M590,891.5c7.43,8.81,20.56,12,40.54,3.49s69.15-69.45,86.68-78,57.25,7,92.07,14.29c27,5.7,45.44,12.6,67.63,13.74,1,.05,8.33-5.29,2.88-15.24s-11.47-15.37-15.55-18.4c0,0-121.25-55.82-148.73-49.66S629,850.18,629,850.18c-4,4.58-16.06,21.64-28.38,25S584,872.29,584,872.29,584,884.43,590,891.5Z"/><path class="cls-3" d="M808.49,617.26s-50.69,70.9-49.26,97,105,97.19,105,97.19c3.36,2,11.16,10.3,15.55,18.4a11.57,11.57,0,0,1-2.88,15.24c24.16-2.21,28-18.83,23.45-30-9.33-22.63-82.17-88.67-85.63-102.77-7.3-29.7,33-80.84,40.74-96.44,1.55-3.14-5.8-11.25-20.84-8.76-12.59,2.08-26.11,10.14-26.11,10.14"/><path class="cls-4" d="M584,872.29c.28-34.45,48.3-107.78,52.81-163.28,6.32-77.7-76-151.45-16.62-168.47,5.75-1.65,14,.77,19.87,3.62l.63.34c-20.37-6.4-4.22,32-2.64,36,.47,1.18,5,11.23,5.44,12.31,0,0,43.07,81.17,42.12,118.59S629,850.18,629,850.18s-15.61,23.8-32,26C586.56,877.51,584,872.29,584,872.29Z"/><path class="cls-5" d="M857,610.94c2.61-11.86-.29-26.37-19-27.82-23.11-1.79-71.62,25.81-109.52,21.39-35.58-4.15-61.67-47.33-86.68-59.45l-1.15-.56c-22-7.74-2.12,37.54-.16,41.75.56,1.2.56,1.21,1.86,4.07,0,0,55.55,62.87,78.76,65.71s83.24-36.17,83.24-36.17c6.39-4.22,43-24.23,51.06-4A45.69,45.69,0,0,0,857,610.94Z"/></g><circle class="cls-6" cx="210" cy="720" r="210"/><g class="cls-7"><rect class="cls-8" x="133.2" y="686.26" width="140.37" height="204.54"/><path class="cls-9" d="M160.34,780.39s5.19,101-41.29,105c-32.56,2.83,63.7,92.24,63.7,92.24L265.56,863s-62.05,6.37-22.18-63.7Z"/><path class="cls-10" d="M265.32,863.2l-26.19,36.33-56.62,78.33s-47.18-43.88-64.4-71.25c-6.37-10.38-8.5-18.17-2.36-20.53h0l2.83-.7h.23a30.87,30.87,0,0,0,8-1.89c38.22-14.16,33.51-103.33,33.51-103.33l82.8,19.1c-26.42,46.72-7.78,59.46,7.79,62.76a49.79,49.79,0,0,0,10.38,1.18A18,18,0,0,0,265.32,863.2Z"/><path class="cls-8" d="M289.62,697.58c-15.1,44.83-38.46,85.88-85.88,85.88s-83-38.46-85.63-85.88c-3.31-60.39,37.27-86.11,85.87-85.87C261.07,612.18,307.79,644.27,289.62,697.58Z"/><circle class="cls-9" cx="207.99" cy="751.85" r="66.06"/><path class="cls-8" d="M297.17,1114.93v12.73c-46.48,56.86-149.1,30-186.61,17.7-8.73-2.83-13.92-5-13.92-5a34.12,34.12,0,0,0,3.3-12.73v-28.55c0-9.44,3.07-3.3,6.37-6.37s-9.44-22.41-9.44-22.41C65,1051.23,84.13,997.2,84.13,997.2l22.18-47.65V889.39a64.52,64.52,0,0,1,9.67-2.83h0l2.83-.71h.24a30.87,30.87,0,0,0,8-1.89c5.9,12.27,18.87,28.55,46.24,30.43,32.56,2.36,63.46-32.79,77.85-51.9a50,50,0,0,0,10.39,1.18,91.11,91.11,0,0,1,12-5.43L259.42,917.7c-12.5,31.37,33.5,77.85,34.92,79.5h0v35.15L291,1070.57l-3.3,9.44,6.37,9.44-3.3,9.43,3.3,6.37C297.17,1111.62,297.17,1108.56,297.17,1114.93Z"/><circle class="cls-8" cx="203.98" cy="595.9" r="33.97"/><path class="cls-8" d="M163.17,578a34,34,0,0,1,30.43-33.73c-1.18,0-2.36-.24-3.3-.24a34,34,0,1,0,0,67.94,14.83,14.83,0,0,0,3.3-.23A34,34,0,0,1,163.17,578Z"/><path class="cls-8" d="M176.61,666.91s-.7-4-28.31,6.37-44.11,86.82-30.43,131.88c5.66,18.17.94,31.14-6.37,40.35-27.84,34.2-16.75,85.87,23.59,103.33l3.54,1.41,17.22,10.38s-21.94-29-11.09-66a189.45,189.45,0,0,0,3.54-97.44c-1.18-5.42-2.59-11.09-4.24-16.75-13.92-48.36-7.08-42.7,41.28-91.3,0,0,27.61,20.76,51.91,31.14s44.82,20.76,27.6,55.21S206.1,841,233.71,886.08s31.14,27.61,27.6,44.83h0l-3.54,17.22,20.76-20.76L264.61,955s44.83,0,58.75-34.68l6.84,6.84s27.6-48.36-24.3-93.42c0,0-17.22-10.38,6.84-44.83s5.66-109-25.48-122.67S176.61,666.91,176.61,666.91Z"/></g><circle class="cls-11" cx="743" cy="1230" r="210"/><g class="cls-12"><polygon class="cls-13" points="695.37 1257.23 684.32 1369.05 798.16 1385.79 806.53 1321.51 814.9 1257.23 695.37 1257.23"/><polygon class="cls-10" points="695.37 1257.23 684.32 1369.05 798.16 1385.79 806.53 1321.51 814.9 1257.23 695.37 1257.23"/><circle class="cls-13" cx="757.98" cy="1203.99" r="89.39"/><path class="cls-8" d="M819.58,1323.18s-5.69-3.68-18.74,3.69-55.92,11.05-76.34-11S689,1275,683.65,1278.66s-9.37,46.53-9.37,46.53l-18.75,15.07-109.82,39.17,9.38,251.78,16.74,57.92s-13.06,44.86,3.68,71-9.37,35.49-9.37,35.49-5.7,7.36-2,26.11-3.69,87.72-3.69,87.72,158.37,71,324.43,9.38l-18.75-71-9.37-158.37s9.37-26.11,7.36-37.16S920,1484.56,920,1484.56s-9.38-78.34-57.92-95.08S806.19,1356,806.19,1356,828.62,1330.55,819.58,1323.18Z"/><path class="cls-8" d="M667.92,1215.38s-9.38-14.07-5.69-28.8a85.7,85.7,0,0,0,2.34-26.11,247.58,247.58,0,0,1,15.07-37.84c7.36-13.72,4-19.41,27.45-23.43s14.06-35.16,76-1.68a18.24,18.24,0,0,0,19.09,7c12.72-2.35,17.41,15.4,17.41,15.4s8.7-5,11.71,2,26.12-4.36,26.12,43.85-26.12,91.41-26.12,91.41,2-81-40.51-89.4-88.39-32.14-99.44-1.34A226,226,0,0,1,667.92,1215.38Z"/><ellipse class="cls-13" cx="832.64" cy="1223.41" rx="8.37" ry="11.05"/></g><circle class="cls-14" cx="1230" cy="720" r="210"/><g class="cls-15"><polygon class="cls-8" points="1093.66 816.79 1189.26 832.72 1221.13 681.34 1144.12 649.47 1093.66 816.79"/><path class="cls-16" d="M1189.26,750.39s8,100.92-53.11,108.89,53.11,188.56,82.33,185.9,82.33-196.52,82.33-196.52-69-47.81-45.15-90.3Z"/><path class="cls-17" d="M1189.26,750.39s8,100.92-53.11,108.89,53.11,188.56,82.33,185.9,82.33-196.52,82.33-196.52-69-47.81-45.15-90.3Z"/><circle class="cls-16" cx="1225.12" cy="703.92" r="82.33"/><path class="cls-8" d="M1225.12,972.15s-71.56-56.7-53-135.91c0,0-71.78,3.12-101,32.34s8,127.47,8,127.47,63.74,106.23,53.11,154-124.82,300.1-87.64,316,262.93,71.7,377.12-21.25c0,0,29.22-262.92-87.64-347.91v-66.39s21.25-18.59,10.63-66.4c0,0,45.15-82.33,18.59-98.26s-87.57-39.29-87.57-39.29S1280.89,945.59,1225.12,972.15Z"/><path class="cls-8" d="M1165.36,620.26s-38.69,12.9-40.65,63.83a90.37,90.37,0,0,0,2.68,24.18c2.18,9.24,3.58,29.1-13.3,55.06a543.59,543.59,0,0,0-30.94,53.22l-.12.24,42.5,5.31,9-70.44a351.06,351.06,0,0,1,27.85-98.88l.3-.65s18.59,34.52,55.77,34.52l-13.28-13.28s58.43,23.91,79.67,23.91c0,0,15.94,10.62,0,26.55s-47.8,53.12-29.21,82.33,2.65,37.19,2.65,37.19l29.22-15.94,13.28-8v10.63l69-8s18.59-2.66-21.25-47.81c0,0-10.52-17.53-5.92-32.65a76.11,76.11,0,0,0,2.9-35.67C1336.67,656.18,1301.65,557.2,1165.36,620.26Z"/></g><circle class="cls-18" cx="743" cy="210" r="210"/><g class="cls-19"><path class="cls-16" d="M691.84,223.41l-9.1,109.21,97.07,45.5S763.12,276.5,775.26,249.2Z"/><path class="cls-17" d="M691.84,223.41l-9.1,109.21,97.07,45.5S763.12,276.5,775.26,249.2Z"/><circle class="cls-16" cx="760.93" cy="210.17" r="91"/><path class="cls-8" d="M791.94,372.05l-9.1-36.4-124.37-45.5s-12.14,0-9.1,21.23,3,18.21,3,18.21-42.47,18.2-45.5,48.53-51.57,39.44-48.54,84.94,18.21,69.77,18.21,69.77-15.17,36.4,9.1,57.63c0,0,24.26,42.47,12.13,72.81s-27.3,81.9,6.07,72.8S867.78,711.8,867.78,711.8s33.37-124.37-3-169.87c0,0,0-27.3-27.3-81.91S791.94,372.05,791.94,372.05Z"/><path class="cls-8" d="M674.64,216.15a9,9,0,0,1,12.15-12l.16.09a15.75,15.75,0,0,1,7.4,15.74c10.94-10.91,2.88-32.8,14.7-42.76,5.47-4.61,14.35-5.62,17.16-12.2,1.64-3.83.52-8.36,2-12.27,2.14-5.8,9-8.22,15.1-9.14,19.23-2.86,38.68,2,57.51,6.86,6.92,1.78,14.2,3.76,19.25,8.83,5.31,5.33,7.16,13.09,10.42,19.88s24.62,6.18,32.09,5.21c2.6-7.37-16.58-7.93-18.15-15.59-4.28-20.94,10.62-43.21,3.31-63.29-4.4-12.1-15.91-20.11-27.49-25.74A145.91,145.91,0,0,0,717,71a22.89,22.89,0,0,0-9.53,4.61c-4.41,4.12-5.23,10.72-8.17,16-6.69,12-22.55,14.86-33.25,23.48-16.2,13.07-18,36.65-18.55,57.46-.27,10.47-.45,21.36,3.84,30.92s14.46,17.36,24.75,15.35A27.54,27.54,0,0,1,674.64,216.15Z"/></g></g></g></g></svg>