<svg xmlns="http://www.w3.org/2000/svg" viewBox="0 0 1920 1440"><defs><style>.cls-1,.cls-2{fill:#1f1832;}.cls-1,.cls-9{opacity:0.1;isolation:isolate;}.cls-3{fill:#635aa7;}.cls-4{fill:#e31568;}.cls-5{fill:#46bc97;}.cls-6{fill:#f2f2f2;}.cls-7{fill:#ffb9b9;}.cls-8{fill:#35bdee;}</style></defs><g id="Layer_2" data-name="Layer 2"><g id="Layer_1-2" data-name="Layer 1"><g id="service3"><circle class="cls-1" cx="292.45" cy="1106.23" r="292.45"/><path class="cls-2" d="M646.39,1236.14c-341.3,0-618-276.67-618-618S305.09,0,646.39,0s618,276.66,618,618a618.23,618.23,0,0,1-618,618.18Zm0-1231.51C308.24,4.63,33.06,279.82,33.06,618s275.18,613.33,613.33,613.33S1259.72,956.1,1259.72,618,984.53,4.63,646.39,4.63Z"/><polygon class="cls-3" points="968.32 813.77 663.65 983.27 324.25 813.56 625.54 609.33 968.32 813.77"/><polygon class="cls-4" points="968.32 813.56 625.54 609.33 642.81 252.87 958 450.15 968.32 813.56"/><polygon class="cls-5" points="341.72 467.42 324.25 813.56 625.54 609.33 642.81 252.87 341.72 467.42"/><polygon class="cls-6" points="337.3 574.17 335.62 571.85 640.07 356.88 961.79 558.59 960.32 561.11 640.28 360.46 337.3 574.17"/><polygon class="cls-6" points="331.4 691.87 329.72 689.55 632.7 483.63 633.54 484.26 962.21 670.39 960.74 672.92 632.91 487.21 331.4 691.87"/><polygon class="cls-6" points="447 875.89 445.31 873.36 750.82 684.08 750.82 321.3 753.77 321.3 753.77 685.76 447 875.89"/><polygon class="cls-6" points="566.8 935.68 565.33 933.15 859.25 748.71 859.25 389.31 862.2 389.31 862.2 750.4 566.8 935.68"/><polygon class="cls-6" points="858.2 875.89 516.27 685.76 516.27 684.92 534.37 329.09 537.11 329.3 519.22 684.08 859.67 873.36 858.2 875.89"/><polygon class="cls-6" points="750.61 935.89 412.47 758.61 412.47 757.56 432.47 401.52 435.42 401.73 415.41 756.92 752.08 933.15 750.61 935.89"/><circle class="cls-2" cx="1026.22" cy="134.56" r="117.91" transform="translate(205.43 765.06) rotate(-45)"/><path class="cls-7" d="M1858.67,749l28.24,77.43s-29.56,88.47,0,90.9S1920,832.63,1920,832.63l-15.88-93.32Z"/><path class="cls-2" d="M1872.35,496l21,21v99.49s12.35,18.54,9.92,23.39-4.85,4.85-2.42,8.6,4.85,6.18,2.42,8.61a9.29,9.29,0,0,0,0,11c2.43,2.42,7.28,6.17,3.75,9.92s-8.6,1.33-3.75,14.79,13.46,17.2,11,22.06-2.42,17.2-2.42,17.2l-52.73,7.28-11-138.76Z"/><polygon class="cls-8" points="1914.04 730.71 1852.71 733.14 1855.14 758.95 1909.19 749.02 1914.04 730.71"/><polygon class="cls-7" points="1745.06 367.81 1737.78 441.49 1812.78 452.52 1818.3 410.17 1823.81 367.81 1745.06 367.81"/><polygon class="cls-9" points="1745.06 367.81 1737.78 441.49 1812.78 452.52 1818.3 410.17 1823.81 367.81 1745.06 367.81"/><path class="cls-7" d="M1582.47,718.36l41.69,89.56s7.28,41.7,18.53,43,22.07-43,22.07-43L1650,784.54l-17.2-66.4h-50.3v.22Z"/><path class="cls-2" d="M1669.61,799.32l-34.42,54S1602.1,1368.05,1607,1364.3s21-4.85,26.91-14.78,44.12,0,44.12,0l22.06-23.39V1307.6c0-3.75,44.12-285,44.12-285v71.25s-13.45,261.65,8.61,259.22,67.5-17.21,67.5-17.21,65.08-488.87,45.45-507.18-28.24-60.23-28.24-60.23Z"/><circle class="cls-7" cx="1786.31" cy="332.73" r="58.9"/><path class="cls-2" d="M1654.83,453l-8.61-4.85s-38.16,25.81-50.29,83.61-21,72.36-21,72.36-12.36,2.43-3.75,11,8.6,7.28,1.32,12.35-12.35-4.85-7.28,4.86,11,7.28,6.18,13.46-13.46,6.17-8.61,11-4.85,15.88,1.33,21,8.6,6.18,8.6,14.78a48.14,48.14,0,0,0,2.43,14.79h63.75s-12.35-23.39-8.6-28.24,4.85-9.93,2.43-12.36-9.93,2.43-2.43-3.75,9.93-2.42,7.28-9.92-7.28-3.75-2.43-7.28,8.61-2.43,6.18-6.18-7.28-3.75-2.43-6.18,8.61,0,7.28-6.18-2.42-3.75,0-6.17,28.24-86,28.24-88.47S1654.83,453,1654.83,453Z"/><polygon class="cls-8" points="1642.69 702.47 1565.26 707.33 1584.89 725.64 1638.94 726.96 1642.69 702.47"/><path class="cls-8" d="M1664.76,794.47,1648.87,824s47.87,6.17,65.08,12.35,61.33,14.78,61.33,14.78l11-43Z"/><polygon class="cls-8" points="1804.62 807.92 1818.3 848.51 1872.35 837.49 1866.17 799.32 1804.62 807.92"/><path class="cls-2" d="M1826.9,411.27s-3.75-2.43-12.35,2.42-36.84,7.28-50.3-7.28-23.38-26.91-26.91-24.48-6.18,30.66-6.18,30.66l-12.36,9.93-72.36,25.81,6.18,165.9,11,38.16s-8.6,29.57,2.43,46.77-6.18,23.39-6.18,23.39-3.75,4.85-1.32,17.2-2.43,57.8-2.43,57.8,104.35,46.77,213.77,6.18L1857.57,757l-6.18-104.35s6.18-17.2,4.85-24.48,36.85-110.53,36.85-110.53S1886.91,466,1854.92,455s-36.84-22.06-36.84-22.06S1832.86,416.12,1826.9,411.27Z"/><path class="cls-2" d="M1727,340.23s-6.18-9.26-3.75-19a56.47,56.47,0,0,0,1.54-17.21,163.51,163.51,0,0,1,9.93-24.93c4.85-9,2.65-12.79,18.09-15.44s9.26-23.16,50.08-1.1a12,12,0,0,0,12.57,4.63c8.38-1.54,11.47,10.15,11.47,10.15s5.74-3.31,7.72,1.32,17.21-2.87,17.21,28.9-17.21,60.23-17.21,60.23,1.33-53.39-26.69-58.9-58.24-21.18-65.52-.89A149.44,149.44,0,0,1,1727,340.23Z"/><ellipse class="cls-7" cx="1835.51" cy="345.53" rx="5.52" ry="7.28"/><path class="cls-2" d="M1804.18,1331.87l8.6,25.81s0,25.81,8.61,38.83,17.21,41-17.21,43.24-49.64-10.81-49.64-10.81,6.4-17.21,0-23.83,0-19.41,0-19.41l6.4-51.84Z"/><path class="cls-2" d="M1635.86,1331.87l-8.61,25.81s0,25.81-8.6,38.83-17.21,41,17.21,43.24,49.63-10.81,49.63-10.81-6.4-17.21,0-23.83,0-19.41,0-19.41l-6.4-51.84Z"/></g></g></g></svg>