<svg xmlns="http://www.w3.org/2000/svg" viewBox="0 0 1920 1440"><defs><style>.cls-1,.cls-2{fill:#1f1832;}.cls-2{opacity:0.1;isolation:isolate;}.cls-3{fill:#635aa7;}.cls-4{fill:#e31568;}.cls-5{fill:#46bc97;}.cls-6{fill:#ffb9b9;}.cls-7{fill:#35bdee;}</style></defs><g id="Layer_2" data-name="Layer 2"><g id="Layer_1-2" data-name="Layer 1"><g id="service2"><path class="cls-1" d="M1129.84,383.85C1036,264.5,880.33,188.79,723,118.57,269.31-83.63-74.06-47.15,90.38,383.85Z"/><path class="cls-1" d="M404.78,969.76c75.53,121.36,164.63,209.72,318.07,209.72,161.33,0,304.69-82.31,395.44-209.72Z"/><path class="cls-2" d="M0,593.76C17.23,573,36.48,553.42,60.13,540.59s52.25-18.7,77.91-11c19.25,5.68,35.75,18.33,51,31.53,31.16,27,60,57.93,96.61,76.45S370.87,659.75,402,632.8c24.75-21.26,35.2-58.11,64.72-72,29.15-13.75,62.88,1.1,92.39,13.75a781.22,781.22,0,0,0,123.93,41.43c28.79,7,58.3,12.28,87.63,9.53s58.85-14.48,78.1-37"/><path class="cls-1" d="M12.47,579.46C29.7,558.74,49,539.12,72.6,526.29s52.25-18.7,77.91-11c19.25,5.68,35.75,18.33,51,31.53,31.16,26.95,59.94,57.93,96.61,76.45s85.24,22.18,116.41-4.77c24.75-21.26,35.2-58.11,64.71-72,29.15-13.75,62.89,1.1,92.4,13.75a781.22,781.22,0,0,0,123.93,41.43c28.78,7,58.3,12.28,87.63,9.53s58.85-14.48,78.1-37"/><path class="cls-2" d="M421.1,713.83c17.23-20.71,36.48-40.33,60.13-53.16s52.25-18.7,77.91-11c19.25,5.68,35.75,18.33,51,31.53,31.16,26.95,59.95,57.93,96.61,76.45s85.25,22.18,116.41-4.77c24.75-21.26,35.2-58.11,64.72-72,29.15-13.75,62.88,1.1,92.39,13.74A780.25,780.25,0,0,0,1104.17,736c28.79,7,58.3,12.28,87.63,9.53s58.85-14.48,78.1-37"/><path class="cls-1" d="M437.23,694c17.24-20.71,36.48-40.33,60.13-53.16s52.25-18.7,77.92-11c19.25,5.68,35.75,18.33,51,31.53,31.17,27,60,57.93,96.61,76.45S808.1,760,839.27,733.08C864,711.82,874.47,675,904,661c29.15-13.75,62.88,1.1,92.4,13.75a781.22,781.22,0,0,0,123.93,41.43c28.78,7,58.29,12.28,87.63,9.53s58.84-14.48,78.09-37"/><path class="cls-2" d="M1220,551h74.06a254.55,254.55,0,0,0,0-88.18H1220A160.37,160.37,0,0,1,1220,551Z"/><path class="cls-3" d="M1230.67,536.74h74.06a254.06,254.06,0,0,0,0-88.18h-74.06A156.89,156.89,0,0,1,1230.67,536.74Z"/><path class="cls-2" d="M483.61,905.78h74.07a254.55,254.55,0,0,0,0-88.18H483.61A160.18,160.18,0,0,1,483.61,905.78Z"/><path class="cls-4" d="M494.25,891.48h74.06a254.55,254.55,0,0,0,0-88.18H494.25A156.89,156.89,0,0,1,494.25,891.48Z"/><path class="cls-2" d="M1110,600.9H1036a254,254,0,0,1,0-88.17H1110A156.86,156.86,0,0,0,1110,600.9Z"/><path class="cls-5" d="M1120.86,590.09h-74.07a254.55,254.55,0,0,1,0-88.18h74.07A156.71,156.71,0,0,0,1120.86,590.09Z"/><polygon class="cls-6" points="1822.67 1294.06 1838.25 1343.38 1790.22 1347.59 1794.44 1294.06 1822.67 1294.06"/><polygon class="cls-6" points="1589.85 1332.19 1589.85 1399.84 1534.85 1399.84 1550.43 1332.19 1589.85 1332.19"/><path class="cls-1" d="M1786,839.78l22.55,214.49s28.24,189,22.55,218.71,1.47,33.91,1.47,33.91h-42.35s1.47-18.33-7-26.76-4.21-33.92-4.21-33.92L1671.79,919l-60.68,183.32s-9.9,201.66-11.36,204.59-5.69,40.89-5.69,40.89h-52.25s7-22.55-2.75-29.7-18.33-1.47-9.9-14.12,11.37-28.23,8.44-35.2-2.75-35.2-2.75-35.2,4.21-380.77,28.23-393.6S1786,839.78,1786,839.78Z"/><path class="cls-1" d="M1575,1363.91s24.2-3.67,24.2-2.39,29,79.57,0,78.47-138.78-16.87-131.45-45.83,43.45-20.54,43.45-20.54l32.63-18.14Z"/><path class="cls-1" d="M1812.4,1339s-24.2-3.67-24.2-2.39-29,79.57,0,78.47,138.78-16.87,131.45-45.84-43.45-20.53-43.45-20.53l-32.63-18.15Z"/><path class="cls-7" d="M1705.34,1030.8h-88.18a306.22,306.22,0,0,1,0-105h88.18A189.46,189.46,0,0,0,1705.34,1030.8Z"/><circle class="cls-6" cx="1669.96" cy="381.28" r="55.55"/><path class="cls-6" d="M1714,374.31s9.9,98.82,22.55,105.78-97.35,14.12-97.35,14.12,26.77-90.2,18.33-98.81S1714,374.31,1714,374.31Z"/><path class="cls-1" d="M1595.53,477.34s39.41-38.13,84.7-31,77.54,15.58,77.54,15.58,69.12,36.67,70.58,66.37-25.3,141-25.3,141-12.65,182-14.11,182-238.33-2.75-238.33-2.75l43.82-237Z"/><path class="cls-6" d="M1604.7,816.68c9.16,2.38,24.93-.92,41.43-6.42,29.33-9.71,60.86-25.66,60.86-25.66s101.56-40.88,131.26-62.15,9.9-105.78,9.9-105.78l-45.1,14.12L1805.8,683,1694.34,754.9a244.34,244.34,0,0,0-51.51,10.45c-18.7,6.23-37,15.76-43.63,30.61a23.09,23.09,0,0,0-2.2,7.15C1595.71,811,1598.83,815,1604.7,816.68Z"/><path class="cls-2" d="M1599.2,796.15c2,7.33,3.85,14.3,5.68,20.71,9.16,2.39,24.93-.91,41.43-6.41l-3.48-44.92C1623.94,771.76,1605.8,781.3,1599.2,796.15Z"/><path class="cls-6" d="M1619.54,590.09l8.44,74.8,14.11,184.42s77.73,93.5,33.92,96.25-67.65-91.67-67.65-91.67S1564.55,704.3,1566,673.32s0-83.23,0-83.23Z"/><path class="cls-1" d="M1607.26,375.23a18.26,18.26,0,0,1-4-2.38c-3.12-2.94-2.57-7.89-1.28-11.92s3.29-8.25,2.38-12.28c-.37-1.84-1.47-3.67-1.83-5.68-.74-4.59,2.93-8.8,7.14-11.19s8.8-3.48,12.65-6c5.87-4,9.17-11.18,15.22-15.21,5.87-3.85,13.38-4,20.35-4h20.9c11,0,22.91.37,31.16,7.7,2.57,2.2,4.4,4.95,7,7.15,5.13,4.4,11.92,6.24,17.42,9.9a30.15,30.15,0,0,1,13.38,25.48c-.18,9.35-4.77,18.34-3.48,27.5.73,6.24,4.21,12.1,3.3,18.34-1.1,7.33-7.7,12.65-14.67,15.21s-14.48,3.67-21.08,6.79c-5.5,2.56-11.19,6.59-16.87,4.76-5-1.47-7.51-6.6-9.35-11.55a95.76,95.76,0,0,1-4.4-17.23c-.73-4.4-1.1-9.17-3.85-12.65a14.54,14.54,0,0,0-13-5.68c-11.37.91-17.6,20.35-28,15.76-5.14-2.2-9.17-9-13.2-12.65A79.62,79.62,0,0,0,1607.26,375.23Z"/><path class="cls-1" d="M1811.3,515.47s28.24,9.9,39.42,49.32,7,66.36,7,66.36l-59.22,9.9Z"/><path class="cls-1" d="M1623.76,474.41S1573,463,1566,511.08a750.27,750.27,0,0,0-7,97.34s48-22.55,69.11,0Z"/></g></g></g></svg>