<svg xmlns="http://www.w3.org/2000/svg" viewBox="0 0 1920 1440.25"><defs><style>.cls-1,.cls-2,.cls-3{fill:#1f1832;}.cls-1,.cls-5{opacity:0.1;}.cls-1,.cls-2,.cls-5{isolation:isolate;}.cls-2{opacity:0.8;}.cls-4{fill:#ffb8b8;}.cls-6{fill:#635aa7;}.cls-7{fill:#35bdee;}.cls-8{fill:#46bc97;}.cls-9{fill:#f1f1f1;}.cls-10{fill:#e31568;}</style></defs><g id="Layer_2" data-name="Layer 2"><g id="Layer_1-2" data-name="Layer 1"><g id="service1"><rect class="cls-1" x="617.96" y="246.57" width="814.76" height="1014.17" transform="translate(8.65 1518.94) rotate(-73.29)"/><ellipse class="cls-2" cx="465.28" cy="1390.87" rx="465.28" ry="49.38"/><rect class="cls-3" x="395.58" y="383.01" width="113" height="164.65"/><path class="cls-4" d="M417.42,458.79s4.18,81.28-33.23,84.51c-26.21,2.28,51.28,74.25,51.28,74.25l66.65-92.29s-49.94,5.12-17.85-51.28Z"/><path class="cls-5" d="M501.93,525.45l-21.08,29.24-45.57,63s-38-35.32-51.85-57.35c-5.13-8.36-6.84-14.62-1.9-16.52h0l2.28-.57H384a24.65,24.65,0,0,0,6.46-1.52c30.76-11.4,27-83.18,27-83.18L484.08,474c-21.27,37.6-6.26,47.86,6.27,50.52a40.25,40.25,0,0,0,8.36,1A14.68,14.68,0,0,0,501.93,525.45Z"/><path class="cls-3" d="M521.5,392.13c-12.16,36.08-31,69.13-69.13,69.13s-66.85-31-68.94-69.13c-2.66-48.62,30-69.32,69.13-69.13C498.52,323.38,536.12,349.21,521.5,392.13Z"/><path class="cls-4" d="M358.36,979.33l17.85,125.53s-15.38,76.92-7.59,130.66l7.59,56.41h35.9l10.25-58.88s10.26-61.53,10.26-89.63c0,0,28.1-128.19,10.25-153.83Z"/><path class="cls-4" d="M576.38,971.55l-17.85,133.31s15.38,76.92,7.59,130.66l-7.59,56.41H522.64l-10.26-58.88s-10.26-61.53-10.26-89.63c0,0-28.1-135.79-10.25-161.43Z"/><path class="cls-3" d="M540.49,1284.33s20.51-7.6,23,2.47,7.59,64,7.59,64,15.39,23,25.64,25.64,33.23,35.89,5.13,38.36-56.41-7.6-56.41-12.73-10.25-7.59-15.38-7.59-23-7.6-20.51-15.38,10.26-97.43,10.26-97.43Z"/><path class="cls-3" d="M394.26,1284.33s-20.52-7.6-23,2.47-7.6,64-7.6,64-15.38,23-25.64,25.64-33.23,35.89-5.13,38.36,56.41-7.6,56.41-12.73,10.25-7.59,15.38-7.59,23-7.6,20.51-15.38S415,1281.67,415,1281.67Z"/><circle class="cls-4" cx="455.79" cy="435.81" r="53.18"/><path class="cls-4" d="M655.76,728.08s-107.68,46.15-117.93-2.66a718.88,718.88,0,0,1-12.92-92.3h0c-1.52-.94-54.5-33.42-44.06-78.43a70.22,70.22,0,0,1,13.3-26.59s1.52-1,4.18-2.46a71.89,71.89,0,0,1,9.68-4.37c18-6.84,48.24-10.83,55.27,35.13,10.25,66.66,10.25,138.45,10.25,138.45s30.77,18,71.79,0,82-7.6,84.51,15.38C732.68,733.21,655.76,728.08,655.76,728.08Z"/><path class="cls-4" d="M384,543.49l-.57,17.09-6.08,192-1,31.9L286.77,884.57s-17.86,53.74-56.41,61.53C192,953.69,256,871.84,256,871.84l87.17-128.19.19-4.37a494.4,494.4,0,0,0-8.93-107.1,133.73,133.73,0,0,1-1.52-39.89c3.61-28.67,27.16-41,41-45.95a52.6,52.6,0,0,1,7.79-2.28h0a9.33,9.33,0,0,1,2.28-.57Z"/><path class="cls-6" d="M527.57,728.08v10.26c-37.41,45.76-120,24.11-150.22,14.24-7-2.28-11.2-4-11.2-4a27.34,27.34,0,0,0,2.66-10.25v-23c0-7.6,2.47-2.66,5.12-5.13s-7.59-18-7.59-18c-25.64-15.39-10.26-58.88-10.26-58.88L373.93,595V546.53a52.6,52.6,0,0,1,7.79-2.28h0l2.28-.57h.19a24.65,24.65,0,0,0,6.46-1.52c4.74,9.87,15.19,23,37.22,24.5,26.21,1.89,51.09-26.4,62.67-41.78a40.25,40.25,0,0,0,8.36.94,73.07,73.07,0,0,1,9.68-4.36l-11.39,47.85c-10.07,25.26,27,62.68,28.1,64h0v28.3l-2.66,30.77L520,700l5.12,7.6-2.65,7.6,2.65,5.12C527.57,725.42,527.57,723,527.57,728.08Z"/><path class="cls-3" d="M371.28,745.93l-7.6-2.47s-92.3,230.74-30.77,241,107.68,28.11,117.94,10.26S456,912.67,456,912.67l10.25-2.47s-17.85,94.77,17.85,87.17,135.79-20.51,135.79-30.76-92.3-231.69-92.3-231.69S489.21,758.85,371.28,745.93Z"/><circle class="cls-3" cx="452.56" cy="310.28" r="27.35"/><path class="cls-3" d="M419.7,295.84a27.36,27.36,0,0,1,24.5-27.15c-.95,0-1.9-.19-2.66-.19a27.35,27.35,0,0,0,0,54.69,11.68,11.68,0,0,0,2.66-.19A27.36,27.36,0,0,1,419.7,295.84Z"/><path class="cls-3" d="M430.53,367.44s-.57-3.23-22.79,5.13-35.51,69.88-24.5,106.16c4.56,14.62.76,25.07-5.13,32.47-22.41,27.54-13.48,69.13,19,83.18l2.85,1.14,13.87,8.36s-17.67-23.36-8.93-53.18a152.52,152.52,0,0,0,2.85-78.43c-.95-4.37-2.09-8.93-3.42-13.48-11.2-38.94-5.7-34.38,33.23-73.5,0,0,22.22,16.71,41.79,25.07s36.08,16.71,22.21,44.44-47.28,52.79-25.06,89.07,25.06,22.22,22.22,36.08h0l-2.85,13.86,16.71-16.71-11.21,22.22s36.09,0,47.29-27.92l5.51,5.51s22.22-38.93-19.56-75.2c0,0-13.86-8.36,5.51-36.09s4.55-87.74-20.51-98.75S430.53,367.44,430.53,367.44Z"/><path class="cls-7" d="M719.57,800.25l74.83-23.36a277.94,277.94,0,0,0-27.92-89.26L691.66,711A166.75,166.75,0,0,1,719.57,800.25Z"/><rect class="cls-3" x="867.89" width="1052.11" height="429.2"/><path class="cls-8" d="M1019.06,159.91H940.63a275.52,275.52,0,0,1,0-93.44h78.43A170,170,0,0,0,1019.06,159.91Z"/><path class="cls-7" d="M1087.05,199.6h78.43a275.52,275.52,0,0,0,0-93.44h-78.43A169.77,169.77,0,0,1,1087.05,199.6Z"/><path class="cls-9" d="M1261.39,62.48a701.69,701.69,0,0,1,10.82,197.32c-1.52,17.09-3.6,34.18-6.45,51.27-1.33,7.79-2.66,15.39-4.18,23.17-.76,4.37-2.66,9.88.19,14.06,5.32,8.16,23.93,5.88,32.09,6.26,16.91.57,34,.57,50.9.95l51.09.95,24.68.38c8.36.19,17.48,1.52,25.83.38,11-1.33,8.36-12.91,8.17-21.46-.38-16.9-.76-33.61-1.33-50.51q-3.42-100-12.54-199.79c-.76-8.55-.38-18.61-2.65-26.78-1-3.23-1.9-4.37-5.51-4.94-8.17-1.32-18,0-26.4.19l-27.92.19-113.56.76a2.86,2.86,0,0,0,0,5.7l93.05-.57,41-.19,22.41-.19c4.56,0,8.93-1.33,11.78,3.61,1.9,3.23,1.14,11.21,1.33,14.81q8.25,89.46,12.15,179.09c.57,15,1.14,30,1.52,44.82.19,6.27.38,12.53.57,18.61,0,3.8.19,7.41.19,11.2s1.71,11.4.19,15c-3,7.59-16.33,4.37-22.79,4.18l-22.79-.38-45.39-.76-45.39-.76c-7.59-.19-15-.19-22.6-.57-2.46-.19-4.93-.19-7.4-.38-7.41-.57-15.38,1.14-16.33-8.93-.57-6.27,2.84-15,4-21.27,1.14-7.22,2.28-14.24,3.23-21.46,1.9-13.48,3.42-26.78,4.37-40.26A716.09,716.09,0,0,0,1266.33,61c-.19-3.61-5.7-2.09-4.94,1.52Z"/><path class="cls-9" d="M1635.51,62.48a701.32,701.32,0,0,1,10.83,197.32c-1.52,17.09-3.61,34.18-6.46,51.27-1.33,7.79-2.66,15.39-4.18,23.17-.76,4.37-2.66,9.88.19,14.06,5.32,8.16,23.93,5.88,32.1,6.26,16.9.57,34,.57,50.89.95l51.09.95,24.69.38c8.35.19,17.47,1.52,25.83.38,11-1.33,8.35-12.91,8.16-21.46-.38-16.9-.76-33.61-1.33-50.51q-3.42-100-12.53-199.79c-.76-8.55-.38-18.61-2.66-26.78-1-3.23-1.9-4.37-5.51-4.94-8.16-1.32-18,0-26.39.19l-27.92.19-113.57.76a2.86,2.86,0,0,0,0,5.7L1731.8,60l41-.19,22.41-.19c4.56,0,8.92-1.33,11.77,3.61,1.9,3.23,1.14,11.21,1.33,14.81q8.26,89.46,12.16,179.09c.57,15,1.14,30,1.52,44.82.19,6.27.38,12.53.57,18.61,0,3.8.19,7.41.19,11.2s1.7,11.4.19,15c-3,7.59-16.34,4.37-22.79,4.18l-22.79-.38-45.39-.76-45.39-.76c-7.6-.19-15-.19-22.6-.57-2.47-.19-4.94-.19-7.41-.38-7.4-.57-15.38,1.14-16.33-8.93-.57-6.27,2.85-15,4-21.27,1.14-7.22,2.28-14.24,3.23-21.46,1.9-13.48,3.42-26.78,4.37-40.26A716.5,716.5,0,0,0,1640.45,61c-.19-3.61-5.7-2.09-4.94,1.52Z"/><path class="cls-9" d="M1287.6,77.1h37.6a2.85,2.85,0,0,0,0-5.69h-37.6a2.71,2.71,0,0,0-2.66,3A2.6,2.6,0,0,0,1287.6,77.1Z"/><path class="cls-9" d="M1287.6,90l35.51-1.33c3.61-.19,3.61-5.89,0-5.7l-35.51,1.33C1284,84.51,1284,90.21,1287.6,90Z"/><path class="cls-9" d="M1287.6,100.84H1322a2.85,2.85,0,0,0,0-5.69H1287.6a2.85,2.85,0,0,0,0,5.69Z"/><path class="cls-9" d="M1401.73,74.45c-7.78-4-14.81,2.65-15.76,10.25-.57,3.8-.57,8.74,1.71,12,2.47,3.23,7,4.56,10.82,4.75,7.41.38,15.2-3.61,16.91-11.2a13.92,13.92,0,0,0-8.74-16.52c-3.42-1.14-4.94,4.36-1.52,5.5a8.16,8.16,0,0,1,4.94,8.36,9.07,9.07,0,0,1-7.6,8c-4.75,1.13-10.25,0-11.2-5.32-.76-4,1.52-13.68,7.4-10.64,3.42,1.52,6.27-3.42,3-5.12Z"/><path class="cls-9" d="M1661.72,77.1h37.6a2.85,2.85,0,0,0,0-5.69h-37.6a2.71,2.71,0,0,0-2.66,3A2.6,2.6,0,0,0,1661.72,77.1Z"/><path class="cls-9" d="M1661.72,90l35.51-1.33c3.61-.19,3.61-5.89,0-5.7l-35.51,1.33C1658.11,84.51,1658.11,90.21,1661.72,90Z"/><path class="cls-9" d="M1661.72,100.84h34.37a2.85,2.85,0,0,0,0-5.69h-34.37a2.85,2.85,0,0,0,0,5.69Z"/><path class="cls-9" d="M1775.86,74.45c-7.79-4-14.82,2.65-15.77,10.25-.56,3.8-.56,8.74,1.71,12,2.47,3.23,7,4.56,10.83,4.75,7.41.38,15.19-3.61,16.9-11.2a13.93,13.93,0,0,0-8.73-16.52c-3.42-1.14-4.94,4.36-1.52,5.5a8.17,8.17,0,0,1,4.93,8.36,9.06,9.06,0,0,1-7.59,8c-4.75,1.13-10.26,0-11.21-5.32-.76-4,1.52-13.68,7.41-10.64,3.42,1.52,6.27-3.42,3-5.12Z"/><path class="cls-9" d="M1295.19,132c41.4.38,82.8-.76,124.2-3.8l-2.65-3.61c-6.84,17.09-6.65,35.33-5.7,53.37.19,4.55,1.71,10.63.76,15.19-1.14,5.7-6.27,4.37-11.4,4.56-11.2.38-22.22.57-33.42.76-10.45.19-21.08.19-31.53.19-4.93,0-9.87,0-14.81-.19-5.89,0-12.34,1.71-13.86-5.13-1-4.37,0-10.07,0-14.43V130.28a2.86,2.86,0,0,0-5.7,0V188c0,3.61-.76,8,.57,11.4,3,7.78,16.33,4.93,22.79,4.93,12.91.19,26,.19,38.93,0s26-.38,38.93-1c5.51-.19,13.3,1.14,15-5.88,1.14-4.75-.19-11.21-.38-16.15-.38-5.69-.57-11.2-.76-16.9-.19-13.1,1.14-26,6.07-38.36a2.83,2.83,0,0,0-2.09-3.42c-.19,0-.57-.19-.76-.19q-62.1,4.56-124.2,3.8a2.71,2.71,0,0,0-2.66,3,2.6,2.6,0,0,0,2.66,2.66Z"/><path class="cls-9" d="M1307,135.22a401.19,401.19,0,0,1,51.84,22.41c15,7.78,34.76,16.14,45,30.19,2.09,2.85,7,0,4.94-2.85-10.64-14.24-28.68-22.41-44.06-30.57a422.55,422.55,0,0,0-56.21-24.5c-3.42-1.52-4.94,4-1.52,5.32Z"/><path class="cls-9" d="M1418.45,125c-18.81,8-34.76,23.55-51.66,35.13-18.23,12.54-37,23.93-56.21,34.76-3.23,1.71-.38,6.65,2.84,4.94,19.19-10.83,38-22.41,56.22-34.76,16.9-11.58,32.85-27,51.65-35.13,3.42-1.33.38-6.27-2.84-4.94Z"/><path class="cls-9" d="M1669.32,132c41.4.38,82.8-.76,124.2-3.8l-2.66-3.61c-6.84,17.09-6.65,35.33-5.7,53.37.19,4.55,1.71,10.63.76,15.19-1.14,5.7-6.26,4.37-11.39,4.56-11.21.38-22.22.57-33.43.76-10.44.19-21.08.19-31.52.19-4.94,0-9.88,0-14.81-.19-5.89,0-12.35,1.71-13.87-5.13-1-4.37,0-10.07,0-14.43V130.28a2.86,2.86,0,0,0-5.7,0V188c0,3.61-.75,8,.57,11.4,3,7.78,16.34,4.93,22.79,4.93,12.92.19,26,.19,38.94,0s26-.38,38.93-1c5.5-.19,13.29,1.14,15-5.88,1.14-4.75-.19-11.21-.38-16.15-.38-5.69-.57-11.2-.76-16.9-.19-13.1,1.14-26,6.08-38.36a2.83,2.83,0,0,0-2.09-3.42c-.19,0-.57-.19-.76-.19q-62.1,4.56-124.2,3.8a2.71,2.71,0,0,0-2.66,3,2.6,2.6,0,0,0,2.66,2.66Z"/><path class="cls-9" d="M1681.09,135.22a401.32,401.32,0,0,1,51.85,22.41c15,7.78,34.75,16.14,45,30.19,2.09,2.85,7,0,4.93-2.85-10.63-14.24-28.67-22.41-44.06-30.57a422.55,422.55,0,0,0-56.21-24.5c-3.42-1.52-4.94,4-1.52,5.32Z"/><path class="cls-9" d="M1792.57,125c-18.8,8-34.75,23.55-51.66,35.13-18.23,12.54-37,23.93-56.21,34.76-3.23,1.71-.38,6.65,2.85,4.94,19.18-10.83,38-22.41,56.21-34.76,16.9-11.58,32.86-27,51.66-35.13,3.42-1.33.38-6.27-2.85-4.94Z"/><path class="cls-9" d="M1669.32,245.93c41.4.38,82.8-.75,124.2-3.79l-2.66-3.61c-6.84,17.09-6.65,35.32-5.7,53.36.19,4.56,1.71,10.64.76,15.2-1.14,5.69-6.26,4.36-11.39,4.55-11.21.38-22.22.57-33.43.76-10.44.19-21.08.19-31.52.19-4.94,0-9.88,0-14.81-.19-5.89,0-12.35,1.71-13.87-5.12-1-4.37,0-10.07,0-14.44V244.23a2.86,2.86,0,0,0-5.7,0V302c0,3.61-.75,8,.57,11.39,3,7.79,16.34,4.94,22.79,4.94,12.92.19,26,.19,38.94,0s26-.38,38.93-1c5.5-.19,13.29,1.14,15-5.89,1.14-4.74-.19-11.2-.38-16.14-.38-5.7-.57-11.2-.76-16.9-.19-13.1,1.14-26,6.08-38.36a2.83,2.83,0,0,0-2.09-3.42c-.19,0-.57-.19-.76-.19q-62.1,4.56-124.2,3.8a2.71,2.71,0,0,0-2.66,3,2.59,2.59,0,0,0,2.66,2.65Z"/><path class="cls-9" d="M1681.09,249.16a404.11,404.11,0,0,1,51.85,22.41c15,7.79,34.75,16.15,45,30.2,2.09,2.85,7,0,4.93-2.85-10.63-14.24-28.67-22.41-44.06-30.58a422.5,422.5,0,0,0-56.21-24.49C1679.19,242.33,1677.67,247.83,1681.09,249.16Z"/><path class="cls-9" d="M1792.57,238.91c-18.8,8-34.75,23.55-51.66,35.13-18.23,12.54-37,23.93-56.21,34.76-3.23,1.7-.38,6.64,2.85,4.93,19.18-10.82,38-22.41,56.21-34.75,16.9-11.59,32.86-27,51.66-35.13C1798.84,242.52,1795.8,237.58,1792.57,238.91Z"/><path class="cls-9" d="M1305.83,241.76q57.54.86,115.27-.38c3.61,0,3.61-5.7,0-5.7-38.36.95-76.72.95-115.27.38a2.71,2.71,0,0,0-2.66,3A2.86,2.86,0,0,0,1305.83,241.76Z"/><path class="cls-9" d="M1309.06,267.58q59.25.85,118.5-.57c3.61,0,3.61-5.69,0-5.69q-59.25,1.43-118.5.57C1305.45,261.89,1305.45,267.58,1309.06,267.58Z"/><path class="cls-9" d="M1304.88,295.5l112-5.13c3.6-.19,3.6-5.88,0-5.69l-112,5.12C1301.27,290,1301.08,295.69,1304.88,295.5Z"/><path class="cls-9" d="M1479.22,215h106.54a2.86,2.86,0,0,0,0-5.7H1479.22a2.86,2.86,0,0,0,0,5.7Z"/><path class="cls-9" d="M1581.2,182.31l16.71,15.2c1.9,1.71,7.22,5.31,8.36,7.59,2.47,4.75-.19,3.61-4.37,5.32a98.39,98.39,0,0,0-28.11,17.47c-2.85,2.47,1.33,6.46,4,4a87,87,0,0,1,25.45-15.95c3.42-1.33,9.68-2.09,11.39-6.08,1.9-4.94-4.17-8.54-7.21-11.2l-22.22-20.32c-2.66-2.47-6.65,1.52-4,4Z"/><path class="cls-6" d="M1322.54,404.7H1401a275.52,275.52,0,0,0,0-93.44h-78.43A169.77,169.77,0,0,1,1322.54,404.7Z"/><path class="cls-10" d="M995.89,334.43h78.44a276,276,0,0,0,0-93.43H995.89A169.74,169.74,0,0,1,995.89,334.43Z"/><path class="cls-8" d="M1491.56,129.33H1570a275.52,275.52,0,0,0,0-93.44h-78.43A169.77,169.77,0,0,1,1491.56,129.33Z"/></g></g></g></svg>