<svg xmlns="http://www.w3.org/2000/svg" viewBox="0 0 1030.57 697"><defs><style>.cls-1{fill:#fff;}.cls-2{fill:none;stroke:#201932;stroke-miterlimit:10;}.cls-3{fill:#fbbebe;}.cls-4{fill:#201932;}.cls-5{opacity:0.1;isolation:isolate;}.cls-6{fill:#2bbef3;}.cls-7{fill:#a0616a;}</style></defs><g id="Layer_2" data-name="Layer 2"><g id="Layer_1-2" data-name="Layer 1"><path class="cls-1" d="M747,162.48A60.64,60.64,0,0,1,807.54,105c1.84,0,3.66.09,5.46.26a80.57,80.57,0,0,1,139.28-.07c1.52-.11,3.05-.19,4.6-.19a60.64,60.64,0,0,1,60.56,57.47"/><path class="cls-2" d="M759.61,157.82a60.64,60.64,0,0,1,60.56-57.48c1.84,0,3.66.1,5.46.26a80.59,80.59,0,0,1,139.29-.07c1.52-.11,3.05-.19,4.59-.19a60.65,60.65,0,0,1,60.57,57.48"/><path class="cls-1" d="M71,504.24C76.48,398.27,164.13,314,271.47,314c6.1,0,12.12.32,18.09.85,74-127.33,237.24-170.56,364.58-96.54a266.69,266.69,0,0,1,96.42,96.33c5-.38,10.09-.64,15.21-.64,107.34,0,195,84.26,200.45,190.23"/><path class="cls-2" d="M112.83,488.8c5.46-106,93.11-190.23,200.45-190.23,6.1,0,12.12.32,18.08.85,74-127.33,237.25-170.56,364.58-96.54a266.61,266.61,0,0,1,96.42,96.33c5-.38,10.09-.64,15.22-.64,107.34,0,195,84.25,200.45,190.23"/><path class="cls-1" d="M0,138.48A82,82,0,0,1,81.94,60.72c2.5,0,5,.13,7.4.34A109,109,0,0,1,277.8,61c2.05-.16,4.12-.26,6.22-.26A82,82,0,0,1,366,138.48"/><path class="cls-2" d="M17.09,132.17A82.06,82.06,0,0,1,99,54.4c2.5,0,5,.13,7.4.35a109,109,0,0,1,188.46-.09c2.05-.15,4.12-.26,6.22-.26a82.06,82.06,0,0,1,81.94,77.77"/><path class="cls-3" d="M411,235.68s14,34-7,42c0,0,30,13,37,10s12-10,12-12-7-3-7-3-13,1-3-32Z"/><circle class="cls-3" cx="427.03" cy="228.68" r="25"/><ellipse class="cls-4" cx="410.53" cy="223.18" rx="22" ry="31"/><ellipse class="cls-4" cx="394.53" cy="213.18" rx="22" ry="31"/><ellipse class="cls-4" cx="372.53" cy="190.68" rx="11" ry="15.5"/><path class="cls-3" d="M452,271.68s6-12,28-18,65-78,65-78-2-43,8-30,2,39,2,39l-25.81,44.57a96.83,96.83,0,0,1-17.87,22.42c-16,14.85-44.46,41-47.32,41C460,292.68,452,271.68,452,271.68Z"/><path class="cls-3" d="M417,442.68s7,85,5,93-8,24,2,71-2,44-2,44l32,14s-11-54-9-69,1-46,7-67,7-80,7-80Z"/><path class="cls-5" d="M417,442.68s7,85,5,93-8,24,2,71-2,44-2,44l32,14s-11-54-9-69,1-46,7-67,7-80,7-80Z"/><path class="cls-4" d="M452.78,653.86c-2.48,1.72-8.85,3.47-20.75-9.18,0,0-7-10-13,0s-2,11,2,16c3.86,4.82,34.74,37.61,47.67,36.28a6.7,6.7,0,0,0,1.33-.28c12-4-5-17-5-17s-11.15-17.15-11.21-25.25a.67.67,0,0,0-.65-.68A.6.6,0,0,0,452.78,653.86Z"/><path class="cls-3" d="M393,432.68s-17,39-24,59c-3.68,10.5-14.8,13.83-24.53,14.63a83.93,83.93,0,0,0-34.27,10.33c-14,7.85-33.09,16.77-45.2,15-21-3-4,30-4,30s31-19,60-21,60-5,74-23,48-75,48-75Z"/><path class="cls-4" d="M262,556.68s-10-7-2-14,11-13,11-13-14-15-19-7-27,44-22,55,10,14,16,2,21.13-21.45,21.13-21.45Z"/><path class="cls-6" d="M448,276.68s-3.33,6.65-34.22.25a19,19,0,0,0-20.91,9.75c-3.87,7.75-4.37,19,9.13,33,0,0,24,27,12,38s57-7,57-7-9-6-1-24c6.28-14.15,5.78-22.11.91-28.28a30.88,30.88,0,0,1-5.84-13c-1.37-6.7-4.74-15.09-13.07-15.68,0,0-8.76-.52-9.38,1.74S450,275.68,448,276.68Z"/><path class="cls-3" d="M411.46,297.89c-.2-1.41-.46-2.81-.63-4.22-.61-4.83-2.9-16.53-10.84-14.52-10,2.53-21,27.53-21,27.53s-9,28-22,35-49,43-49,43-30,8-19,16,25-5,25-5l35.36-21.22a101.38,101.38,0,0,0,31.2-29.33c7.37-10.68,16.59-23,22.44-27.08a19.34,19.34,0,0,0,7.56-9.88A22.82,22.82,0,0,0,411.46,297.89Z"/><path class="cls-6" d="M420,355.68s-46-6-72,25-45,22-43,27,98,64,154,57c34.09-4.26,52.24-8.15,61.23-10.55a17.43,17.43,0,0,0,9.64-6.46,17.64,17.64,0,0,1,4.88-4.43,8.67,8.67,0,0,0,2.48-12c0-.07-.1-.15-.16-.22-15.86-22.95-58.91-83.73-71.07-85.35C451,343.68,420,355.68,420,355.68Z"/><ellipse class="cls-4" cx="427.53" cy="201.68" rx="16" ry="11.5"/><path class="cls-7" d="M746.84,99.21A114.43,114.43,0,0,1,751,83.65c1.81-4.94,4.1-9.16,6.64-9.16,6.18,0-21.62-26.25-21.62-26.25s-1.74,3.24-4.63,7.61a110.09,110.09,0,0,1-6.92,9.42A51.71,51.71,0,0,1,712.86,76C700.51,83.76,746.84,99.21,746.84,99.21Z"/><path class="cls-7" d="M828.64,201.59s61.94,39.13,42.85,45.56-50.7-39.54-50.7-39.54Z"/><path class="cls-6" d="M745.56,112.7s29.67,21.63,38.34,38.09,53.74,53,53.74,53-9.31,18.38-13.81,17.28-97.25-70.12-107-75.7S721.94,105.29,745.56,112.7Z"/><path class="cls-5" d="M745.56,112.7s29.67,21.63,38.34,38.09,53.74,53,53.74,53-9.31,18.38-13.81,17.28-97.25-70.12-107-75.7S721.94,105.29,745.56,112.7Z"/><path class="cls-7" d="M833.34,151.72s69.5,23.17,52.51,34-58.69-26.26-58.69-26.26Z"/><path class="cls-4" d="M788.54,468.35s29.35-12.36,26.26,6.18-17,35.52-17,44.79S771.55,548.67,766.92,544s7.72-23.17,4.63-34-6.17-35.52-6.17-35.52Z"/><path class="cls-5" d="M788.54,468.35s29.35-12.36,26.26,6.18-17,35.52-17,44.79S771.55,548.67,766.92,544s7.72-23.17,4.63-34-6.17-35.52-6.17-35.52Z"/><path class="cls-4" d="M779.28,482.25s29.34-12.35,26.25,6.18-17,35.52-17,44.79-26.25,29.35-30.89,24.71,7.73-23.16,4.64-34-6.18-35.52-6.18-35.52Z"/><path class="cls-4" d="M711.32,369.5s91.13,86.49,88,94.22-23.17,24.71-23.17,24.71S706.68,397.3,711.32,369.5Z"/><path class="cls-5" d="M711.32,369.5s91.13,86.49,88,94.22-23.17,24.71-23.17,24.71S706.68,397.3,711.32,369.5Z"/><path class="cls-4" d="M689.69,213.5s23.17,23.17,17,68,4.64,88,17,101.94S787,477.62,787,477.62s-21.62,35.52-38.61,17-68-94.22-68-94.22-46.34-91.13-51-115.84-6.18-63.33,6.18-71.05S689.69,213.5,689.69,213.5Z"/><path class="cls-5" d="M728,60.73c18,3.74,16.25,4.47,27.34,8.36.06-.19.12-.34.18-.5,1.7-4,2.77,1.27,5.22,1.27,6.18,0-21.62-26.26-21.62-26.26s-1,1.95-2.86,4.87c-.54.85-1.13,1.77-1.77,2.75-.54.82-1.13,1.68-1.75,2.58Z"/><circle class="cls-7" cx="760.74" cy="52.87" r="29.35"/><path class="cls-6" d="M706.68,74.49s44.8,4.64,54.06,24.72S703.6,216.59,699,218.14s-69.5,9.26-69.5,9.26,3.09-98.85,63.32-135.92C692.78,91.48,706.68,85.31,706.68,74.49Z"/><path class="cls-6" d="M731.4,85.31s34,13.9,46.33,27.8,64.87,38.61,64.87,38.61S838,171.8,833.34,171.8s-111.21-44.79-122-47.88S706.68,83.76,731.4,85.31Z"/><path class="cls-4" d="M758.43,56.73s7.72-7.72-7.73-13.9c0,0,15.45-6.18,18.54-15.44s13.9-24.72,23.17,0,26.25,57.14-29.35,57.14c0,0-13.9,3.09-13.9-9.26A23.16,23.16,0,0,1,758.43,56.73Z"/></g></g></svg>