<svg xmlns="http://www.w3.org/2000/svg" viewBox="0 0 1013.03 844.99"><defs><style>.cls-1{fill:#2bbef3;}.cls-2{fill:#fff;}.cls-3{fill:#a0616a;}.cls-4{fill:#2f2e41;}.cls-5{opacity:0.15;isolation:isolate;}.cls-6{fill:#201932;}</style></defs><g id="Layer_2" data-name="Layer 2"><g id="Layer_1-2" data-name="Layer 1"><path class="cls-1" d="M957,270.31c0,35.17-8.33,64.12-22.78,88.92A177.59,177.59,0,0,1,918,382.48c-53.12,65-151.88,100.53-241.14,158.13-263.48,170-292-102.42-280.12-270.3C401.57,202.57,428,140.52,469.86,93a278.26,278.26,0,0,1,28.45-28C545.89,24.52,607.36,0,676.89,0,796.18,0,898.05,72,938.44,173.34a261.78,261.78,0,0,1,18.56,97Z"/><path class="cls-2" d="M736.57,60.92,469.86,93a278.26,278.26,0,0,1,28.45-28Z"/><path class="cls-2" d="M934.22,359.23A177.59,177.59,0,0,1,918,382.48L689.57,355Z"/><path class="cls-2" d="M947.76,201.22,560.57,151l377.87,22.34A260.47,260.47,0,0,1,947.76,201.22Z"/><path class="cls-1" d="M423,72c0,.69,0,1.37-.08,2a28,28,0,1,1-52.68-15.11,26.89,26.89,0,0,1,2.06-3.31,28,28,0,0,1,50.6,14.1C423,70.47,423,71.23,423,72Z"/><path class="cls-2" d="M423,72c0,.69,0,1.37-.08,2L381,69l41.9.72C423,70.47,423,71.23,423,72Z"/><path class="cls-2" d="M413,86.11l-38.78,4.67a28.45,28.45,0,0,1-3-4Z"/><path class="cls-2" d="M402,55.11l-31.76,3.82a26.89,26.89,0,0,1,2.06-3.31Z"/><path class="cls-1" d="M806.77,576.13c-.33.61-.66,1.2-1,1.76a28,28,0,1,1-39.45-38,25.72,25.72,0,0,1,3.37-2,28,28,0,0,1,38.09,36.18C807.46,574.76,807.13,575.45,806.77,576.13Z"/><path class="cls-2" d="M806.77,576.13c-.33.61-.66,1.2-1,1.76l-34.67-24.1,36.68,20.28C807.46,574.76,807.13,575.45,806.77,576.13Z"/><path class="cls-2" d="M791.32,583.9l-36.45-14a28.65,28.65,0,0,1-.76-4.88Z"/><path class="cls-2" d="M796.13,551.36l-29.84-11.51a25.72,25.72,0,0,1,3.37-2Z"/><path class="cls-1" d="M1005.08,93.45c.48.5.94,1,1.37,1.52a28,28,0,1,1-48.27,26,25.86,25.86,0,0,1-.83-3.81,28,28,0,0,1,46.07-25.23C1004,92.38,1004.54,92.9,1005.08,93.45Z"/><path class="cls-2" d="M1005.08,93.45c.48.5.94,1,1.37,1.52l-33.53,25.66,30.5-28.74C1004,92.38,1004.54,92.9,1005.08,93.45Z"/><path class="cls-2" d="M1007.77,110.54,983.27,141a27.7,27.7,0,0,1-4.88-.77Z"/><path class="cls-2" d="M978.25,96l-20.07,24.91a25.86,25.86,0,0,1-.83-3.81Z"/><path class="cls-3" d="M479.78,609.45s61.45,2.56,61.45,17.92-69.13,0-69.13,0Z"/><path class="cls-4" d="M387.61,845,272.4,837.31l-5.12-61.44-25.6,53.76L129,814.27c2.56-97.29,43.52-192,46.08-204.82s8.68-65.69,8.68-65.69C195,520,253.61,517.8,299.57,520c19,.87,35.94,2.51,46.36,3.68,6.89.77,11,1.34,11,1.34,18.36,18.92,30.18,44.7,37.46,73.5C420.56,702.24,387.61,845,387.61,845Z"/><circle class="cls-3" cx="259.6" cy="187.01" r="64.01"/><path class="cls-3" d="M216.08,202.38S198.15,281.74,170,304.79s110.09,0,110.09,0-30.72-51.21-7.68-74.25S216.08,202.38,216.08,202.38Z"/><path class="cls-2" d="M346.65,530.09l-42.48,4.71L185.35,548s-.56-1.51-1.56-4.25c-8.63-23.53-50.18-138-54.76-172.41-5.12-38.4,48.64-84.49,48.64-84.49s51.21-10.24,66.57-10.24,76.81,23,76.81,23L344,505.79l2,17.84Z"/><path class="cls-5" d="M394.35,598.47,308.24,548s-1.51-4.92-4.07-13.21c-1.28-4.15-2.84-9.17-4.6-14.85-9.94-31.9-26.61-84.54-40-123-20.48-58.88,79.37,105,79.37,105l5,3.87,2,17.84c6.89.77,11,1.34,11,1.34C375.25,543.89,387.07,569.67,394.35,598.47Z"/><path class="cls-2" d="M280.08,304.79S254.48,338.07,275,397,323.61,548,323.61,548l148.49,87,20.48-25.61L354.33,501.92s-5.12-194.57-30.72-202.25S280.08,304.79,280.08,304.79Z"/><path class="cls-3" d="M153.35,528.81s35.84,74.24,51.21,66.56-38.41-84.49-38.41-84.49Z"/><path class="cls-2" d="M149.51,325.27,13.82,437.92s-51.21,35.84,43.52,61.44,102.41,41,102.41,41,10.24-33.29,23-28.17L72.7,458.4l89.61-53.77Z"/><path class="cls-4" d="M95,239.55c7.13-3.53,22.85-10.65,36.25-19.22-.94-27.9,2.49-53.22,12.55-66.65,5.64-12.81,17.5-25.65,26.78-35.75,22.8-24.82,73.21-38.67,82.15-26.27C320.33,93,327.45,146,327.45,146c-.36,22.18-23.4,22.88-43.59,22.07,1.81,15.14-3,30.86-16.95,37.84-26.68,13.34-34.68,30.68-21.35,42.68s37.35,44,5.34,52-36,24-26.68,30.68-21.34-12-21.34-12-5.33,32-33.34,24c-2.51-.72-5-2.56-7.49-5.3-7.56,8.31-14.31,13.22-19.4,13.25-29.13.15-25.63-32.11-25.63-32.11s-34.58,9.71-23.79,5.81,11.25-20.4-17.42-36.74S78.89,247.51,95,239.55Z"/><path class="cls-6" d="M452.38,323.18l-.46-.06,1.13,4.31a113.47,113.47,0,0,0,4.65,17.67l33.23,126.31a21.4,21.4,0,0,0,17.43,15.71l67.76,10.48a21.41,21.41,0,0,0,22.15-11.05l64.39-120.27A115.48,115.48,0,0,0,668.17,356l2.18-4.09-.34,0a113.85,113.85,0,1,0-217.63-28.68Z"/><path class="cls-2" d="M580.28,505.86a23.65,23.65,0,0,1-3.57-.28l-70.82-11a23.38,23.38,0,0,1-19-17.15l-34.73-132a120,120,0,0,1-4.88-18.55l-.88-5.78a120,120,0,0,1,137.4-133.86l-.31,2A118.08,118.08,0,0,0,448.52,322.14l.67,4.32a119.5,119.5,0,0,0,4.84,18.4L488.79,477a21.36,21.36,0,0,0,17.4,15.69l70.83,11a21.4,21.4,0,0,0,22.11-11l1.77.94A23.43,23.43,0,0,1,580.28,505.86Z"/><rect class="cls-2" x="515.25" y="409.88" width="125.31" height="2.59" transform="translate(-6.93 812.43) rotate(-69.88)"/><rect class="cls-2" x="528.04" y="341" width="2.59" height="125.31" transform="translate(-17.21 23.62) rotate(-2.52)"/><path class="cls-6" d="M574.29,565.71l-90.76-14a2.59,2.59,0,0,1,.79-5.11l90.76,14a2.59,2.59,0,1,1-.76,5.12Z"/><path class="cls-6" d="M576.62,546.44l-90.76-14a2.59,2.59,0,1,1,.76-5.12h0l90.76,14a2.59,2.59,0,1,1-.77,5.12Z"/><path class="cls-6" d="M578.94,527.16l-90.75-14A2.59,2.59,0,0,1,489,508l90.76,14a2.59,2.59,0,0,1-.8,5.11Z"/><path class="cls-6" d="M526.09,576.93c18,2.78,34.15-5,36.06-17.37L497,549.47C495.05,561.85,508.09,574.14,526.09,576.93Z"/><path class="cls-2" d="M558.71,327.1c-3.87-.6-7.07-3.66-8.83-5.71-.57-.67-1.14-1.37-1.7-2.07-2-2.55-4-4.95-6.66-6.21-5.94-2.77-12.94,1.1-19,5.25l-1.47-2.13c6.66-4.56,14.43-8.78,21.55-5.46,3.23,1.51,5.45,4.26,7.59,6.93q.81,1,1.65,2c1.82,2.13,5.46,5.58,9.37,4.79a12.63,12.63,0,0,0,4.49-2.38,25,25,0,0,1,3.18-2,12.67,12.67,0,0,1,13.91,2,23.66,23.66,0,0,1,1.89,2c1.16,1.33,2.26,2.58,3.69,3,2.11.67,4.35-.54,6.72-1.81s5-2.68,7.83-2.35l.28,0c5.09.79,7.44,6.42,8.77,10.63l-2.47.78c-1.8-5.72-4-8.56-6.89-8.88-2-.24-4.11.87-6.29,2.05-2.74,1.48-5.58,3-8.73,2-2.12-.67-3.51-2.26-4.86-3.79a20.43,20.43,0,0,0-1.69-1.79,10.16,10.16,0,0,0-11-1.56,21.86,21.86,0,0,0-2.83,1.8,14.74,14.74,0,0,1-5.47,2.8A8.34,8.34,0,0,1,558.71,327.1Z"/></g></g></svg>