<svg xmlns="http://www.w3.org/2000/svg" viewBox="0 0 595.18 497.67"><defs><style>.cls-1{fill:#2bbef3;}.cls-2{fill:#201932;}.cls-3{fill:#3f3d56;}.cls-4{opacity:0.1;isolation:isolate;}.cls-5{fill:#6363b4;}.cls-6{fill:#ffb9b9;}</style></defs><g id="Layer_2" data-name="Layer 2"><g id="Layer_1-2" data-name="Layer 1"><path class="cls-1" d="M60.34,359.21c19.9,59.88,12.91,116.11,12.91,116.11S34,434.46,14.1,374.57,1.19,258.46,1.19,258.46,40.44,299.32,60.34,359.21Z"/><path class="cls-1" d="M86.16,359.21c-19.9,59.88-12.91,116.11-12.91,116.11s39.25-40.86,59.14-100.75S145.3,258.46,145.3,258.46,106.06,299.32,86.16,359.21Z"/><path class="cls-2" d="M94.17,359.86C95.51,422.94,72.23,474.6,72.23,474.6S46.79,424,45.46,360.88,67.4,246.14,67.4,246.14,92.84,296.77,94.17,359.86Z"/><ellipse class="cls-3" cx="72.22" cy="475.32" rx="56.27" ry="3.09"/><circle class="cls-1" cx="69.82" cy="304.1" r="6.18"/><circle class="cls-1" cx="57.81" cy="353.51" r="3.43"/><circle class="cls-2" cx="15.94" cy="319.54" r="3.43" transform="translate(-303.76 331.77) rotate(-89.33)"/><circle class="cls-2" cx="137.07" cy="286.26" r="3.43"/><circle class="cls-2" cx="33.79" cy="351.79" r="3.43"/><circle class="cls-2" cx="105.84" cy="331.89" r="3.43"/><circle class="cls-2" cx="35.85" cy="402.23" r="3.43"/><circle class="cls-2" cx="109.27" cy="382.67" r="3.43"/><circle class="cls-1" cx="75.99" cy="386.1" r="3.43"/><path class="cls-2" d="M401.42,124c-30.35-38.56-80.63-63-131.48-85.71C123.32-27,12.41-15.25,65.52,124Z"/><path class="cls-2" d="M167.15,313.4c24.43,39.23,53.17,67.75,102.79,67.75,52.14,0,98.46-26.58,127.76-67.75Z"/><path class="cls-4" d="M36.29,191.87c5.55-6.71,11.81-13,19.46-17.19s16.85-6,25.2-3.54c6.23,1.85,11.55,5.92,16.46,10.17C107.48,190,116.77,200,128.65,206s27.54,7.15,37.63-1.55c8-6.88,11.39-18.8,20.92-23.29s20.31.33,29.85,4.45a250.05,250.05,0,0,0,40.07,13.41c9.28,2.25,18.83,4,28.34,3.07s19-4.71,25.24-12"/><path class="cls-4" d="M172.38,230.67c5.55-6.71,11.81-13,19.46-17.19s16.86-6,25.2-3.54c6.24,1.85,11.55,5.92,16.46,10.18,10.08,8.71,19.36,18.69,31.24,24.71s27.54,7.15,37.63-1.55c8-6.88,11.39-18.8,20.93-23.29s20.3.33,29.84,4.45a250.05,250.05,0,0,0,40.07,13.41c9.28,2.25,18.84,4,28.34,3.07s19-4.71,25.24-12"/><path class="cls-2" d="M40.34,187.24c5.55-6.72,11.81-13,19.46-17.19s16.86-6,25.21-3.54c6.23,1.85,11.54,5.92,16.45,10.17,10.08,8.72,19.36,18.7,31.24,24.72s27.54,7.14,37.63-1.55c8-6.88,11.39-18.8,20.93-23.29s20.3.33,29.84,4.45a248.81,248.81,0,0,0,40.08,13.4c9.27,2.25,18.83,4,28.33,3.07s19-4.71,25.24-12"/><path class="cls-2" d="M177.59,224.3c5.55-6.71,11.81-13,19.46-17.19s16.86-6,25.21-3.54c6.23,1.85,11.54,5.92,16.46,10.17,10.07,8.72,19.36,18.7,31.24,24.72s27.53,7.15,37.62-1.55c8-6.88,11.39-18.8,20.93-23.29s20.3.33,29.84,4.45a250.16,250.16,0,0,0,40.08,13.41c9.27,2.25,18.83,4,28.33,3.07s19-4.71,25.24-12"/><circle class="cls-4" cx="35.98" cy="150.09" r="12.74"/><circle class="cls-1" cx="40.61" cy="144.3" r="12.74"/><path class="cls-4" d="M430.54,178.08h23.92a83.28,83.28,0,0,0,0-28.52H430.54A51.22,51.22,0,0,1,430.54,178.08Z"/><path class="cls-1" d="M434,173.44h23.92a83.78,83.78,0,0,0,0-28.52H434A51.4,51.4,0,0,1,434,173.44Z"/><path class="cls-4" d="M395,194.18H371.09a83.78,83.78,0,0,1,0-28.52H395A51.4,51.4,0,0,0,395,194.18Z"/><path class="cls-5" d="M398.49,190.7H374.57a83.78,83.78,0,0,1,0-28.52h23.92A51.22,51.22,0,0,0,398.49,190.7Z"/><polygon class="cls-6" points="563.68 450.52 568.69 466.47 553.19 467.84 554.56 450.52 563.68 450.52"/><polygon class="cls-6" points="488.47 462.83 488.47 484.71 470.69 484.71 475.7 462.83 488.47 462.83"/><path class="cls-2" d="M551.83,303.75,559.12,373s9.12,61.08,7.29,70.65.46,10.94.46,10.94H553.19s.46-5.92-2.28-8.66S549.55,435,549.55,435L514.9,329.27l-19.6,59.26s-3.19,65.18-3.64,66.09-1.83,13.22-1.83,13.22H473s2.28-7.29-.91-9.57-5.93-.46-3.19-4.56,3.64-9.12,2.73-11.4-.91-11.39-.91-11.39,1.37-123.07,9.12-127.17S551.83,303.75,551.83,303.75Z"/><path class="cls-2" d="M483.65,473.11s7.79-1.17,7.79-.78,9.36,25.72,0,25.33-44.81-5.45-42.47-14.81,14-6.62,14-6.62l10.52-5.85Z"/><path class="cls-2" d="M560.39,465s-7.8-1.17-7.8-.78-9.35,25.72,0,25.33,44.82-5.46,42.48-14.81-14-6.62-14-6.62l-10.52-5.85Z"/><path class="cls-1" d="M525.78,365.45H497.3a99.75,99.75,0,0,1,0-33.95h28.48A61.32,61.32,0,0,0,525.78,365.45Z"/><circle class="cls-6" cx="514.33" cy="155.6" r="17.94"/><path class="cls-6" d="M528.58,153.33s3.19,31.9,7.29,34.18-31.45,4.56-31.45,4.56,8.66-29.17,5.93-31.91S528.58,153.33,528.58,153.33Z"/><path class="cls-5" d="M490.29,186.6s12.76-12.31,27.35-10,25.07,5,25.07,5S565,193.44,565.5,203s-8.2,45.58-8.2,45.58-4.11,58.8-4.56,58.8l-77-.91,14.13-76.58Z"/><path class="cls-6" d="M493.27,296.28c3,.8,8.05-.3,13.36-2A167.11,167.11,0,0,0,526.3,286s32.82-13.22,42.39-20.06,3.19-34.18,3.19-34.18l-14.58,4.55.91,16.87-36,23.25a80.91,80.91,0,0,0-16.67,3.35c-6.06,2-11.95,5.09-14.08,9.86a9.25,9.25,0,0,0-.7,2.28C490.31,294.41,491.33,295.76,493.27,296.28Z"/><path class="cls-4" d="M491.45,289.61c.63,2.36,1.25,4.61,1.82,6.67,3,.8,8.05-.3,13.36-2l-1.1-14.49C499.47,281.74,493.58,284.84,491.45,289.61Z"/><path class="cls-6" d="M498,223.07l2.73,24.15,4.54,59.61s25.09,30.19,11,31.1-21.88-29.63-21.88-29.63S480.26,260,480.72,250s0-26.89,0-26.89Z"/><path class="cls-2" d="M494.07,153.59a4.55,4.55,0,0,1-1.29-.77c-1-.95-.82-2.56-.39-3.86s1.05-2.64.74-4c-.14-.62-.48-1.19-.58-1.81-.22-1.5,1-2.86,2.29-3.6s2.84-1.1,4.08-2c1.92-1.32,3-3.63,4.91-4.89s4.32-1.28,6.58-1.28h6.77c3.54,0,7.43.13,10.06,2.5.8.71,1.44,1.6,2.25,2.31,1.63,1.43,3.84,2,5.65,3.18a9.8,9.8,0,0,1,4.35,8.26c-.06,3-1.53,5.92-1.14,8.9.25,2,1.33,3.92,1,5.91-.34,2.37-2.51,4.07-4.74,4.94s-4.65,1.18-6.82,2.19c-1.77.83-3.61,2.14-5.48,1.56-1.57-.48-2.44-2.15-3-3.7a30,30,0,0,1-1.45-5.59,9.5,9.5,0,0,0-1.22-4.12,4.75,4.75,0,0,0-4.23-1.83c-3.66.33-5.72,6.55-9.08,5.08-1.66-.73-2.95-2.92-4.28-4.11A21.77,21.77,0,0,0,494.07,153.59Z"/><path class="cls-5" d="M560,198.91s9.12,3.19,12.76,16,2.28,21.42,2.28,21.42l-19.14,3.2Z"/><path class="cls-5" d="M499.41,185.69S483,182,480.72,197.54A247,247,0,0,0,478.44,229s15.5-7.29,22.33,0Z"/></g></g></svg>